<svg width="73" height="70" viewBox="0 0 73 70" fill="none" xmlns="http://www.w3.org/2000/svg">
<g clip-path="url(#clip0_572_21618)">
<path d="M71.6047 35C71.6047 53.7436 55.834 69 36.3023 69C16.7706 69 1 53.7436 1 35C1 16.2564 16.7706 1 36.3023 1C55.834 1 71.6047 16.2564 71.6047 35Z" fill="white" stroke="#DF234F" stroke-width="2"/>
<mask id="mask0_572_21618" style="mask-type:luminance" maskUnits="userSpaceOnUse" x="12" y="12" width="49" height="46">
<path d="M60.1569 12H12.4453V58H60.1569V12Z" fill="white"/>
</mask>
<g mask="url(#mask0_572_21618)">
<path d="M40.5487 12.1079C40.2132 12.1079 39.8778 12.1798 39.5796 12.2876C40.2132 12.6829 40.5487 13.222 40.7351 13.8329C40.7351 13.9048 40.7724 13.9767 40.7724 14.0485C40.7724 14.1204 40.8096 14.1923 40.8096 14.2642C40.8469 15.3063 40.5114 15.4501 40.2878 16.061C39.9149 16.8517 40.0269 17.7142 40.4742 18.397C40.5114 18.4688 40.5487 18.5767 40.6233 18.6485C40.1387 15.6298 42.7479 15.1985 43.2325 14.2642C43.2698 13.4376 42.5616 12.8985 42.0023 12.5032C41.4433 12.1798 40.996 12.1079 40.5487 12.1079ZM44.4626 12.7548C44.4253 13.0423 44.4626 12.9704 44.4253 13.1142C44.4253 13.222 44.4253 13.3298 44.388 13.4376C44.3507 13.5454 44.3507 13.6173 44.3134 13.7251C44.2761 13.8329 44.2388 13.9048 44.2015 14.0126C44.1643 14.0845 44.1271 14.1563 44.0898 14.2642C44.0525 14.3001 44.0153 14.372 43.978 14.4079C43.9407 14.4438 43.9407 14.4798 43.9034 14.5157C43.8289 14.5876 43.7916 14.6954 43.7171 14.7673L43.4934 14.9829C43.4189 15.0548 43.3443 15.1267 43.2698 15.1626C43.0088 15.3423 42.7106 15.486 42.4496 15.6657C42.3752 15.7376 42.2634 15.7735 42.1888 15.8454C42.1143 15.9173 42.0397 15.9532 41.9652 16.0251L41.7415 16.2407C41.667 16.3126 41.5924 16.3845 41.555 16.4923C41.4806 16.5642 41.4433 16.672 41.3688 16.7438C41.3315 16.8517 41.2941 16.9235 41.2197 17.0313C41.1824 17.1392 41.1451 17.211 41.1077 17.3188C41.0705 17.4267 41.0333 17.5345 41.0333 17.6063C41.0333 17.6423 41.0333 17.7142 40.996 17.7501C40.996 17.786 40.996 17.8579 40.9587 17.8938V18.397C40.9587 18.5048 40.9587 18.5767 40.996 18.6845C40.996 18.7923 41.0333 18.8642 41.0706 18.972C41.1078 19.0798 41.1451 19.1517 41.1824 19.2595C41.2197 19.3313 41.2569 19.3673 41.2569 19.4392L38.424 18.397C37.9394 18.2532 37.4922 18.1454 37.0076 18.0376C36.7467 17.9657 36.4858 17.9298 36.2248 17.8579C35.4794 17.7142 34.7339 17.6063 33.9883 17.5345H33.9137C33.1682 17.4626 32.4601 17.4267 31.7146 17.4267C31.1555 17.4267 30.6336 17.4626 30.1118 17.4985C29.3663 17.5345 28.6208 17.6423 27.8753 17.7501L27.3161 17.8579C26.9433 17.9298 26.5706 18.0017 26.1979 18.1095C26.0115 18.1454 25.8252 18.2173 25.6388 18.2532C25.4525 18.3251 25.2661 18.397 25.117 18.4688C24.9678 18.5407 24.8561 18.5767 24.707 18.6485C24.6697 18.6485 24.6697 18.6485 24.6323 18.6845C24.5205 18.7563 24.4088 18.7923 24.2969 18.8642C24.2597 18.8642 24.2224 18.9001 24.2224 18.9001C24.0732 18.972 23.9615 19.0438 23.8496 19.0798C23.7751 19.1157 23.6633 19.1517 23.5887 19.1876C23.5514 19.2235 23.5141 19.2235 23.4768 19.2595C23.365 19.3313 23.2533 19.3673 23.1414 19.4392C23.0296 19.511 22.9178 19.547 22.8432 19.6188C22.7687 19.6907 22.6568 19.7267 22.5822 19.7985C22.5822 19.7985 22.5449 19.7985 22.5449 19.8345C22.4704 19.8704 22.3959 19.9423 22.3214 20.0142L22.2841 20.0501C22.2096 20.086 22.1722 20.1579 22.0976 20.1938C22.0604 20.1938 22.0605 20.2298 22.0232 20.2298C21.9486 20.2657 21.9114 20.3376 21.8368 20.3735C21.8368 20.4095 21.7995 20.4095 21.7995 20.4095L21.5759 20.6251L21.5386 20.661L21.3149 20.8767C21.3149 20.8767 21.3149 20.9126 21.2776 20.9126L21.0913 21.0923C21.054 21.1282 21.0167 21.1282 21.0167 21.1642L20.793 21.3798C20.793 21.4157 20.7557 21.4157 20.7557 21.4517L20.4576 21.7392L20.4204 21.7751C20.234 21.9907 20.0104 22.1704 19.7867 22.3501C19.5631 22.5298 19.3394 22.7095 19.0785 22.8892C18.8176 23.0688 18.5938 23.2126 18.3329 23.3563C18.072 23.5001 17.8111 23.6079 17.5502 23.7157C17.2893 23.8235 17.0283 23.9313 16.7674 24.0032C16.2455 24.111 15.7238 24.3267 15.2765 24.3626C15.2765 24.1829 15.1646 24.2188 15.0528 24.2188C14.941 24.2548 14.8291 24.2548 14.7545 24.2907C14.6428 24.3267 14.5682 24.3626 14.4564 24.3985C14.3446 24.4345 14.27 24.4704 14.1582 24.5423C14.0837 24.6142 13.9718 24.6501 13.8973 24.722C13.8227 24.7938 13.7109 24.8657 13.6364 24.9376C13.5618 25.0095 13.45 25.0813 13.3755 25.1532C13.3009 25.2251 13.2264 25.297 13.1518 25.4048C13.0773 25.5126 13.0027 25.5845 12.9654 25.6923C12.8909 25.7642 12.8535 25.872 12.779 25.9798C12.7417 26.0876 12.6672 26.1954 12.63 26.3032L12.5181 26.6267C12.4809 26.7345 12.4809 26.8063 12.4436 26.9142V26.9501C12.4063 27.0579 12.4062 27.2017 12.4062 27.2735C12.4436 27.2376 12.4436 27.3095 12.4436 27.3813V27.5251C12.4436 27.597 12.4809 27.6688 12.4809 27.7407C12.5181 27.8126 12.5181 27.8845 12.5554 27.9563C12.5927 28.0282 12.63 28.1001 12.7045 28.172C12.7418 28.2438 12.8162 28.3157 12.8535 28.3876C12.9281 28.4595 13.0027 28.5313 13.0773 28.5673C13.1518 28.6392 13.2263 28.711 13.3008 28.747C13.599 28.9985 13.6737 29.0704 14.0464 29.286C14.1209 29.322 14.1581 29.3579 14.2327 29.3938H14.2699V29.4657C14.2699 29.5735 14.3073 29.6454 14.3446 29.7532C14.3819 29.861 14.4191 29.9688 14.4564 30.0407L14.5682 30.2563C14.5682 30.2923 14.6055 30.2923 14.6055 30.3282C14.6428 30.436 14.7172 30.5079 14.7545 30.5798C14.8291 30.6517 14.8664 30.7595 14.941 30.8313L15.1645 31.047L15.3883 31.2626H15.4256C15.5001 31.3345 15.5746 31.3704 15.6491 31.4423C15.7237 31.5142 15.8356 31.5501 15.9101 31.586C15.9847 31.622 16.0965 31.6938 16.2083 31.7298C16.2829 31.7657 16.3574 31.8017 16.4693 31.8017C16.4693 31.8017 16.5064 31.8017 16.5064 31.8376C16.5437 31.8376 16.6184 31.8735 16.6556 31.8735C16.6184 32.5204 16.6184 33.1313 16.6929 33.347C16.8047 33.5985 17.3637 32.8438 17.8856 32.0173C17.811 32.8438 17.7738 33.8142 17.8856 34.1017C18.0347 34.3892 18.743 33.4548 19.414 32.4485C28.1362 30.5079 36.113 36.3298 36.9703 44.5595C36.8212 43.2657 35.1812 42.547 34.3983 42.7267C34.0255 43.5892 33.392 44.7392 32.3856 45.422C32.4601 44.6313 32.4228 43.8407 32.2737 43.0501C32.0128 44.1282 31.4909 45.1704 30.7454 46.0329C29.5898 46.1048 28.3972 45.5657 27.8007 44.7392C27.7634 44.7032 27.7261 44.6313 27.6888 44.5954C27.6516 44.5235 27.6144 44.4157 27.5771 44.3438C27.5398 44.272 27.5026 44.1642 27.5026 44.0923V43.8407V43.661C27.5026 43.5892 27.5398 43.4813 27.5771 43.4095C27.6144 43.3376 27.6144 43.2298 27.6517 43.1579C27.6889 43.086 27.7261 42.9782 27.8007 42.9063C28.0244 42.3313 28.0244 41.8642 27.6144 41.6126L27.3907 41.5048C27.3535 41.5048 27.2788 41.4688 27.2415 41.4688C27.2043 41.4688 27.1671 41.4329 27.1298 41.4329C27.0553 41.397 26.9433 41.397 26.8688 41.361C26.7942 41.3251 26.6825 41.3251 26.608 41.3251C26.5334 41.3251 26.4216 41.2892 26.3471 41.2892H26.1607C26.0489 41.2892 25.9743 41.2892 25.8998 41.3251C25.8252 41.3251 25.7134 41.361 25.6388 41.361C25.5643 41.397 25.4525 41.397 25.3779 41.4329C25.3034 41.4688 25.2288 41.5048 25.117 41.5407L24.8933 41.6485C22.0232 43.4454 23.7378 47.686 25.6761 48.9079C24.9306 49.0517 24.1851 49.1954 23.9614 49.3392L23.9241 49.3751C24.4459 49.6985 25.0051 49.9501 25.6016 50.1657C26.3842 50.4173 27.2416 50.6329 27.6144 50.7407C28.6208 50.9563 29.6644 51.0282 30.7081 50.9563C36.1502 50.597 40.6233 46.572 41.4433 41.3251C41.4806 41.4329 41.4806 41.5407 41.5179 41.6485C41.5551 41.8642 41.5924 42.0798 41.6297 42.3313C41.667 42.4392 41.667 42.547 41.667 42.6548V42.6907C41.667 42.7985 41.7042 42.9063 41.7042 43.0142C41.7042 43.1579 41.7415 43.2657 41.7415 43.4095V44.9188C41.7415 45.0267 41.7042 45.0985 41.7042 45.2063V45.3142C41.7042 45.422 41.667 45.5298 41.667 45.6735C41.6297 45.7813 41.6297 45.8892 41.5924 45.997V46.0329C41.555 46.1407 41.5551 46.2485 41.5179 46.3563V46.3923C41.4806 46.5001 41.4806 46.6079 41.4433 46.7157V46.7517L41.3315 47.0751V47.111C41.2942 47.2188 41.2569 47.3626 41.2197 47.4704C41.1824 47.5782 41.1451 47.686 41.0706 47.8298C41.0333 47.9376 40.996 48.0813 40.9215 48.1892C40.8842 48.297 40.8096 48.4048 40.7724 48.5485C40.7351 48.6563 40.6605 48.7642 40.6233 48.872C40.6233 48.9079 40.586 48.9438 40.586 48.9438C40.586 48.9438 40.586 48.9798 40.5487 48.9798C39.7659 50.5251 38.5731 51.8907 37.0821 52.9688C36.9702 53.0407 36.8958 53.1126 36.784 53.1845C36.7467 53.2204 36.7094 53.2204 36.7094 53.2563C36.6349 53.3282 36.523 53.3642 36.4485 53.436L36.4858 53.5079C36.6721 53.472 36.8212 53.472 37.0076 53.436C37.3431 53.4001 37.6412 53.3282 37.9767 53.2563C38.0512 53.2563 38.1631 53.2204 38.2377 53.1845C38.3122 53.1845 38.3494 53.1485 38.424 53.1485C38.4985 53.1485 38.6104 53.1126 38.685 53.1126C38.7595 53.0767 38.8341 53.0767 38.9086 53.0407C40.1387 52.7532 41.3314 52.3579 42.4869 51.8907C40.5114 54.4782 37.9021 56.5626 34.8456 57.9282C36.2621 57.8204 37.6786 57.6048 39.0577 57.2095C44.0153 55.8079 48.19 52.5735 50.6874 48.2251C50.1656 50.9563 49.0472 53.5798 47.3699 55.8798C48.5627 55.1251 49.6437 54.2267 50.6502 53.2563C53.4085 50.4892 55.235 46.9313 55.8313 43.1579C56.2414 45.0267 56.3905 46.9673 56.2041 48.872C65.1128 36.9048 56.9496 24.5063 53.5203 21.236C53.5203 21.2001 53.483 21.2001 53.483 21.1642C53.483 21.3079 53.483 21.4517 53.4458 21.5954C53.4085 21.8829 53.3712 22.1345 53.3339 22.386C53.2593 22.6376 53.1848 22.9251 53.1103 23.1767C53.0357 23.4282 52.9239 23.6798 52.812 23.9313C52.7002 24.1829 52.5884 24.4345 52.4393 24.6501C52.2901 24.8657 52.1412 25.1173 51.992 25.3329C51.843 25.5485 51.6566 25.7642 51.4701 25.9798C51.2837 26.1954 51.0975 26.3751 50.8738 26.5907C50.762 26.6985 50.6502 26.8063 50.5011 26.8782C50.3892 26.9501 50.3147 27.022 50.2029 27.1298C49.9791 27.3095 49.7556 27.4532 49.4946 27.597C49.271 27.7407 49.0101 27.8845 48.7492 27.9923L47.9664 28.3157C47.7055 28.4235 47.4445 28.4954 47.1836 28.5673C46.9227 28.6392 46.6245 28.711 46.3636 28.747C46.0654 28.7829 45.8045 28.8188 45.5434 28.8548C45.3572 28.8548 45.1335 28.8907 44.9471 28.8907C44.6489 28.8907 44.388 28.8548 44.1271 28.8548C43.8289 28.8188 43.5679 28.7829 43.3069 28.747C43.0087 28.711 42.7479 28.6392 42.4869 28.5313C42.7479 28.4954 43.046 28.4954 43.3069 28.4235C43.6052 28.3876 43.8662 28.3157 44.1271 28.2438C44.388 28.172 44.6861 28.1001 44.9099 27.9923L45.6926 27.6688C45.9534 27.561 46.1772 27.4173 46.4381 27.2735C46.6618 27.1298 46.9227 26.9501 47.1463 26.8063C47.37 26.6267 47.5936 26.447 47.78 26.2673C48.0037 26.0876 48.1899 25.872 48.3764 25.6923C48.5628 25.4767 48.7492 25.261 48.8982 25.0454C48.9355 25.0095 48.9355 24.9735 48.9728 24.9376C49.0846 24.7579 49.2337 24.5423 49.3455 24.3626C49.4946 24.111 49.6064 23.8954 49.7183 23.6438C49.8301 23.3923 49.9419 23.1407 50.0165 22.8892L50.2401 22.1345C50.2774 21.847 50.352 21.5954 50.352 21.3438C50.3892 21.0563 50.3892 20.8048 50.3892 20.5532C50.3892 20.3735 50.3892 20.1579 50.352 19.9782C50.3147 19.6907 50.2774 19.4392 50.2401 19.1876C50.2029 18.9001 50.1283 18.6485 50.0538 18.397C49.9792 18.1454 49.8674 17.8938 49.7928 17.6423C49.681 17.3907 49.5692 17.1392 49.4574 16.9235C49.3083 16.672 49.1964 16.4563 49.0473 16.2048C48.8982 15.9892 48.7119 15.7735 48.5628 15.5579C48.3764 15.3423 48.1899 15.1626 48.0037 14.947C47.8918 14.8392 47.78 14.7313 47.6682 14.6595C47.1091 14.2282 46.5499 13.8688 45.9535 13.5095C45.879 13.4735 45.8044 13.4376 45.6926 13.4017C45.208 13.0063 44.8353 12.8985 44.4626 12.7548Z" fill="#DF234F"/>
</g>
</g>
<defs>
<clipPath id="clip0_572_21618">
<rect width="73" height="70" fill="white"/>
</clipPath>
</defs>
</svg>
