<svg width="18" height="18" viewBox="0 0 18 18" fill="none" xmlns="http://www.w3.org/2000/svg">
<g id="mynaui:chat">
<path id="Vector" d="M9 15.75C10.335 15.75 11.6401 15.3541 12.7501 14.6124C13.8601 13.8707 14.7253 12.8165 15.2362 11.5831C15.7471 10.3497 15.8808 8.99252 15.6203 7.68314C15.3599 6.37377 14.717 5.17104 13.773 4.22703C12.829 3.28303 11.6262 2.64015 10.3169 2.3797C9.00749 2.11925 7.65029 2.25292 6.41689 2.76382C5.18349 3.27471 4.12928 4.13987 3.38758 5.2499C2.64588 6.35994 2.25 7.66498 2.25 9C2.25 10.08 2.5035 11.1 2.955 12.0053C3.29475 12.6885 2.82225 13.6103 2.64225 14.283C2.60237 14.4318 2.60237 14.5885 2.64223 14.7373C2.68209 14.886 2.76043 15.0217 2.86935 15.1307C2.97827 15.2396 3.11395 15.3179 3.26275 15.3578C3.41154 15.3976 3.56821 15.3976 3.717 15.3578C4.38975 15.1778 5.3115 14.7053 5.99475 15.0458C6.92832 15.5104 7.95719 15.7515 9 15.75Z" stroke="#4D4D4D" stroke-width="1.5" stroke-linecap="round" stroke-linejoin="round"/>
</g>
</svg>
