<svg width="22" height="22" viewBox="0 0 22 22" fill="none" xmlns="http://www.w3.org/2000/svg">
<path d="M5.00166 8.91828C5.00124 8.7041 5.07583 8.49653 5.21249 8.33161C5.28944 8.23879 5.38395 8.16207 5.49061 8.10583C5.59726 8.04959 5.71395 8.01494 5.83402 8.00387C5.95408 7.9928 6.07515 8.00553 6.19028 8.04132C6.30542 8.07711 6.41236 8.13526 6.50499 8.21245L11.4183 12.3191L16.3408 8.35911C16.4346 8.28297 16.5425 8.22611 16.6583 8.1918C16.7741 8.15748 16.8955 8.1464 17.0157 8.15917C17.1358 8.17195 17.2522 8.20834 17.3582 8.26625C17.4642 8.32416 17.5577 8.40245 17.6333 8.49661C17.7168 8.59146 17.7797 8.70253 17.8182 8.82285C17.8567 8.94317 17.8699 9.07016 17.857 9.19582C17.8441 9.32149 17.8053 9.44314 17.7432 9.55312C17.681 9.6631 17.5968 9.75905 17.4958 9.83495L11.9958 14.2624C11.8318 14.3973 11.6261 14.471 11.4137 14.471C11.2014 14.471 10.9957 14.3973 10.8317 14.2624L5.33166 9.67911C5.22073 9.58716 5.13303 9.47034 5.0757 9.33815C5.01836 9.20596 4.993 9.06211 5.00166 8.91828Z" fill="#4D4D4D"/>
</svg>
