<svg width="22" height="22" viewBox="0 0 22 22" fill="none" xmlns="http://www.w3.org/2000/svg">
<path d="M10.8125 5.375C10.9617 5.375 11.1048 5.43426 11.2102 5.53975C11.3157 5.64524 11.375 5.78832 11.375 5.9375V10.25H15.6875C15.8367 10.25 15.9798 10.3093 16.0852 10.4148C16.1907 10.5202 16.25 10.6633 16.25 10.8125C16.25 10.9617 16.1907 11.1048 16.0852 11.2102C15.9798 11.3157 15.8367 11.375 15.6875 11.375H11.375V15.6875C11.375 15.8367 11.3157 15.9798 11.2102 16.0852C11.1048 16.1907 10.9617 16.25 10.8125 16.25C10.6633 16.25 10.5202 16.1907 10.4148 16.0852C10.3093 15.9798 10.25 15.8367 10.25 15.6875V11.375H5.9375C5.78832 11.375 5.64524 11.3157 5.53975 11.2102C5.43426 11.1048 5.375 10.9617 5.375 10.8125C5.375 10.6633 5.43426 10.5202 5.53975 10.4148C5.64524 10.3093 5.78832 10.25 5.9375 10.25H10.25V5.9375C10.25 5.78832 10.3093 5.64524 10.4148 5.53975C10.5202 5.43426 10.6633 5.375 10.8125 5.375Z" fill="#808080"/>
</svg>
