<svg width="22" height="22" viewBox="0 0 22 22" fill="none" xmlns="http://www.w3.org/2000/svg">
<path d="M5.50166 13.5527C5.50124 13.7668 5.57583 13.9744 5.71249 14.1393C5.78944 14.2322 5.88395 14.3089 5.99061 14.3651C6.09726 14.4214 6.21395 14.456 6.33402 14.4671C6.45408 14.4781 6.57515 14.4654 6.69028 14.4296C6.80542 14.3938 6.91236 14.3357 7.00499 14.2585L11.9183 10.1518L16.8408 14.1118C16.9346 14.188 17.0425 14.2448 17.1583 14.2792C17.2741 14.3135 17.3955 14.3246 17.5157 14.3118C17.6358 14.299 17.7522 14.2626 17.8582 14.2047C17.9642 14.1468 18.0577 14.0685 18.1333 13.9743C18.2168 13.8795 18.2797 13.7684 18.3182 13.6481C18.3567 13.5278 18.3699 13.4008 18.357 13.2751C18.3441 13.1495 18.3053 13.0278 18.2432 12.9178C18.181 12.8078 18.0968 12.7119 17.9958 12.636L12.4958 8.2085C12.3318 8.07368 12.1261 7.99997 11.9137 7.99997C11.7014 7.99997 11.4957 8.07368 11.3317 8.2085L5.83166 12.7918C5.72073 12.8838 5.63303 13.0006 5.5757 13.1328C5.51836 13.265 5.493 13.4088 5.50166 13.5527Z" fill="#999999"/>
</svg>
