<svg width="70" height="70" viewBox="0 0 70 70" fill="none" xmlns="http://www.w3.org/2000/svg">
<g clip-path="url(#clip0_572_21530)">
<path d="M35 69C53.7777 69 69 53.7777 69 35C69 16.2223 53.7777 1 35 1C16.2223 1 1 16.2223 1 35C1 53.7777 16.2223 69 35 69Z" fill="white" stroke="#A259FF" stroke-width="2"/>
<mask id="mask0_572_21530" style="mask-type:luminance" maskUnits="userSpaceOnUse" x="12" y="12" width="46" height="46">
<path d="M57.5 12.5H12.5V57.5H57.5V12.5Z" fill="white"/>
</mask>
<g mask="url(#mask0_572_21530)">
<path d="M28.4961 57.8516C32.6797 57.8516 36.0547 54.4766 36.0547 50.293V42.7344H28.4961C24.3125 42.7344 20.9375 46.1094 20.9375 50.293C20.9375 54.4766 24.3125 57.8516 28.4961 57.8516Z" fill="#0ACF83"/>
<path d="M20.9375 35.1758C20.9375 30.9922 24.3125 27.6172 28.4961 27.6172H36.0547V42.7344H28.4961C24.3125 42.7344 20.9375 39.3594 20.9375 35.1758Z" fill="#A259FF"/>
<path d="M20.9375 20.0586C20.9375 15.875 24.3125 12.5 28.4961 12.5H36.0547V27.6172H28.4961C24.3125 27.6172 20.9375 24.2422 20.9375 20.0586Z" fill="#F24E1E"/>
<path d="M36.0547 12.5H43.6133C47.7969 12.5 51.1719 15.875 51.1719 20.0586C51.1719 24.2422 47.7969 27.6172 43.6133 27.6172H36.0547V12.5Z" fill="#FF7262"/>
<path d="M51.1719 35.1758C51.1719 39.3594 47.7969 42.7344 43.6133 42.7344C39.4297 42.7344 36.0547 39.3594 36.0547 35.1758C36.0547 30.9922 39.4297 27.6172 43.6133 27.6172C47.7969 27.6172 51.1719 30.9922 51.1719 35.1758Z" fill="#1ABCFE"/>
</g>
</g>
<defs>
<clipPath id="clip0_572_21530">
<rect width="70" height="70" fill="white"/>
</clipPath>
</defs>
</svg>
