<svg width="32" height="32" viewBox="0 0 32 32" fill="none" xmlns="http://www.w3.org/2000/svg">
<path d="M22.6891 28.3087C22.7851 28.3981 22.8621 28.5059 22.9154 28.6257C22.9688 28.7455 22.9975 28.8749 22.9998 29.006C23.0022 29.1372 22.978 29.2674 22.9289 29.3891C22.8798 29.5107 22.8067 29.6212 22.7139 29.7139C22.6212 29.8067 22.5107 29.8798 22.3891 29.9289C22.2675 29.978 22.1372 30.0022 22.006 29.9998C21.8749 29.9975 21.7456 29.9688 21.6257 29.9154C21.5059 29.8621 21.3981 29.7851 21.3087 29.6891L8.28565 16.6659C8.10274 16.4827 8 16.2345 8 15.9756C8 15.7168 8.10274 15.4685 8.28565 15.2854L21.3087 2.26215C21.4938 2.08962 21.7387 1.99569 21.9918 2.00015C22.2448 2.00462 22.4862 2.10713 22.6652 2.28608C22.8441 2.46504 22.9467 2.70647 22.9511 2.95951C22.9556 3.21256 22.8617 3.45745 22.6891 3.64261L10.3579 15.9756L22.6891 28.3087Z" fill="#4D4D4D"/>
</svg>
