<svg width="44" height="44" viewBox="0 0 44 44" fill="none" xmlns="http://www.w3.org/2000/svg">
<path d="M13 12.9064C13 11.8703 13.3951 10.8767 14.0983 10.1441C14.8016 9.41156 15.7554 9 16.75 9H27.25C28.2446 9 29.1984 9.41156 29.9016 10.1441C30.6049 10.8767 31 11.8703 31 12.9064V33.2194C30.9999 33.3634 30.9615 33.5047 30.8892 33.6274C30.8169 33.7502 30.7134 33.8497 30.5901 33.915C30.4669 33.9804 30.3287 34.0089 30.1908 33.9976C30.053 33.9862 29.9208 33.9354 29.809 33.8507L22 27.9349L14.191 33.8507C14.0792 33.9354 13.947 33.9862 13.8092 33.9976C13.6713 34.0089 13.5331 33.9804 13.4099 33.915C13.2866 33.8497 13.1831 33.7502 13.1108 33.6274C13.0385 33.5047 13.0001 33.3634 13 33.2194V12.9064Z" fill="#E6E6E6"/>
</svg>
