<svg width="18" height="18" viewBox="0 0 18 18" fill="none" xmlns="http://www.w3.org/2000/svg">
<path d="M3.00166 6.91828C3.00124 6.7041 3.07583 6.49653 3.21249 6.33161C3.28944 6.23879 3.38395 6.16207 3.49061 6.10583C3.59726 6.04959 3.71395 6.01494 3.83402 6.00387C3.95408 5.9928 4.07515 6.00553 4.19028 6.04132C4.30542 6.07711 4.41236 6.13526 4.50499 6.21245L9.41832 10.3191L14.3408 6.35911C14.4346 6.28297 14.5425 6.22611 14.6583 6.1918C14.7741 6.15748 14.8955 6.1464 15.0157 6.15917C15.1358 6.17195 15.2522 6.20834 15.3582 6.26625C15.4642 6.32416 15.5577 6.40245 15.6333 6.49661C15.7168 6.59146 15.7797 6.70253 15.8182 6.82285C15.8567 6.94317 15.8699 7.07016 15.857 7.19582C15.8441 7.32149 15.8053 7.44314 15.7432 7.55312C15.681 7.6631 15.5968 7.75905 15.4958 7.83495L9.99582 12.2624C9.8318 12.3973 9.62606 12.471 9.41374 12.471C9.20142 12.471 8.99568 12.3973 8.83166 12.2624L3.33166 7.67911C3.22073 7.58716 3.13303 7.47034 3.0757 7.33815C3.01836 7.20596 2.993 7.06211 3.00166 6.91828Z" fill="#4D4D4D"/>
</svg>
