<svg width="22" height="22" viewBox="0 0 22 22" fill="none" xmlns="http://www.w3.org/2000/svg">
<path d="M12.5527 4.00166C12.7669 4.00124 12.9744 4.07583 13.1394 4.21249C13.2322 4.28944 13.3089 4.38395 13.3652 4.49061C13.4214 4.59726 13.456 4.71396 13.4671 4.83402C13.4782 4.95408 13.4655 5.07515 13.4297 5.19028C13.3939 5.30542 13.3357 5.41236 13.2585 5.50499L9.15186 10.4183L13.1119 15.3408C13.188 15.4346 13.2449 15.5425 13.2792 15.6583C13.3135 15.7741 13.3246 15.8955 13.3118 16.0157C13.299 16.1358 13.2626 16.2522 13.2047 16.3582C13.1468 16.4642 13.0685 16.5577 12.9744 16.6333C12.8795 16.7168 12.7685 16.7797 12.6481 16.8182C12.5278 16.8567 12.4008 16.8699 12.2752 16.857C12.1495 16.8441 12.0278 16.8053 11.9179 16.7432C11.8079 16.681 11.7119 16.5968 11.636 16.4958L7.20853 10.9958C7.07371 10.8318 7 10.6261 7 10.4137C7 10.2014 7.07371 9.99568 7.20853 9.83166L11.7919 4.33166C11.8838 4.22073 12.0006 4.13303 12.1328 4.0757C12.265 4.01836 12.4089 3.993 12.5527 4.00166Z" fill="#4D4D4D"/>
</svg>
