<svg width="44" height="44" viewBox="0 0 44 44" fill="none" xmlns="http://www.w3.org/2000/svg">
<g clip-path="url(#clip0_1129_74725)">
<path d="M28.8333 25.8434C28.0311 25.8434 27.3133 26.1596 26.7644 26.6551L19.2383 22.2801C19.2911 22.0377 19.3333 21.7952 19.3333 21.5422C19.3333 21.2892 19.2911 21.0467 19.2383 20.8042L26.68 16.4714C27.25 16.9985 27.9994 17.3253 28.8333 17.3253C30.5856 17.3253 32 15.9127 32 14.1627C32 12.4127 30.5856 11 28.8333 11C27.0811 11 25.6667 12.4127 25.6667 14.1627C25.6667 14.4157 25.7089 14.6581 25.7617 14.9006L18.32 19.2334C17.75 18.7063 17.0006 18.3795 16.1667 18.3795C14.4144 18.3795 13 19.7922 13 21.5422C13 23.2922 14.4144 24.7048 16.1667 24.7048C17.0006 24.7048 17.75 24.378 18.32 23.8509L25.8356 28.2364C25.7828 28.4578 25.7511 28.6898 25.7511 28.9217C25.7511 30.619 27.1339 32 28.8333 32C30.5328 32 31.9156 30.619 31.9156 28.9217C31.9156 27.2244 30.5328 25.8434 28.8333 25.8434Z" fill="#999999"/>
</g>
<defs>
<clipPath id="clip0_1129_74725">
<rect width="44" height="44" fill="white"/>
</clipPath>
</defs>
</svg>
