<svg width="15" height="28" viewBox="0 0 15 28" fill="none" xmlns="http://www.w3.org/2000/svg">
<path d="M14.6891 26.3087C14.7851 26.3981 14.8621 26.5059 14.9154 26.6257C14.9688 26.7455 14.9975 26.8749 14.9998 27.006C15.0022 27.1372 14.978 27.2674 14.9289 27.3891C14.8798 27.5107 14.8067 27.6212 14.7139 27.7139C14.6212 27.8067 14.5107 27.8798 14.3891 27.9289C14.2675 27.978 14.1372 28.0022 14.006 27.9998C13.8749 27.9975 13.7456 27.9688 13.6257 27.9154C13.5059 27.8621 13.3981 27.7851 13.3087 27.6891L0.285648 14.6659C0.102739 14.4827 0 14.2345 0 13.9756C0 13.7168 0.102739 13.4685 0.285648 13.2854L13.3087 0.262147C13.4938 0.0896151 13.7387 -0.00431248 13.9918 0.000152173C14.2448 0.00461683 14.4862 0.107125 14.6652 0.286082C14.8441 0.465038 14.9467 0.70647 14.9511 0.959513C14.9556 1.21256 14.8617 1.45745 14.6891 1.64261L2.35794 13.9756L14.6891 26.3087Z" fill="black"/>
</svg>
