<svg width="100" height="45" viewBox="0 0 100 45" fill="none" xmlns="http://www.w3.org/2000/svg">
<g opacity="0.5">
<path d="M13.076 13.3232H24.4895V24.7915H13.076C9.86084 24.7915 7.12109 22.4369 7.12109 19.2867C7.12109 16.1094 9.83307 13.3232 13.076 13.3232Z" fill="#0059FF"/>
</g>
<g opacity="0.5">
<path d="M18.0698 31.186H6.65625V19.7178H18.0698C21.3127 19.7198 24.0247 22.0452 24.0247 25.2225C24.0247 28.3748 21.2849 31.186 18.0698 31.186Z" fill="#0059FF"/>
</g>
<path opacity="0.5" d="M33.5428 13.3232H26.4375V31.6724H33.5428V13.3232Z" fill="#0059FF"/>
<path opacity="0.5" d="M43.8059 13.3232H26.4375V18.6751H43.8059V13.3232Z" fill="#0059FF"/>
<path opacity="0.5" d="M39.8586 20.375H26.4375V25.7269H39.8586V20.375Z" fill="#0059FF"/>
<g opacity="0.72">
<path d="M49.5391 31.6724H58.2233L49.5391 13.3232V31.6724Z" fill="#0059FF"/>
</g>
<path opacity="0.72" d="M49.5397 31.6724H40.8555L49.5397 13.3232V31.6724Z" fill="#77A3F7"/>
<path opacity="0.5" d="M61.0063 29.1089C62.7295 30.6972 65.065 31.6769 67.6441 31.6769C70.4088 31.6769 72.8927 30.5484 74.6414 28.7536L68.0082 22.4004L61.0039 29.1089H61.0063Z" fill="#0059FF"/>
<path opacity="0.5" d="M67.6421 13.3242C65.1164 13.3242 62.8249 14.2683 61.1133 15.7988L68.0085 22.403L74.5444 16.1431C72.8003 14.4083 70.3556 13.3242 67.6444 13.3242H67.6421Z" fill="#0059FF"/>
<path opacity="0.72" d="M61.1108 15.7991C59.2368 17.474 58.0586 19.8531 58.0586 22.501C58.0586 25.1489 59.1904 27.4413 61.0018 29.1096L68.006 22.401L61.1108 15.7969V15.7991Z" fill="#0059FF"/>
<path fill-rule="evenodd" clip-rule="evenodd" d="M86.8539 20H91.6468L86 25.5858L86.7071 26.2929L92.3539 20.7071V25.5H93.3539V19.5V19H92.8539H86.8539V20Z" fill="#999999"/>
</svg>
