<svg width="180" height="33" viewBox="0 0 180 33" fill="none" xmlns="http://www.w3.org/2000/svg">
<path d="M175.3 14.3159C174.061 14.3159 173.04 13.9148 172.239 13.1127C171.462 12.3106 171.073 11.3316 171.073 10.1756C171.073 9.01966 171.462 8.04063 172.239 7.23853C173.04 6.41284 174.061 6 175.3 6C176.563 6 177.583 6.41284 178.36 7.23853C179.138 8.04063 179.526 9.01966 179.526 10.1756C179.526 11.3316 179.138 12.3106 178.36 13.1127C177.583 13.9148 176.563 14.3159 175.3 14.3159ZM172.348 33L171 29.9568C172.628 29.4142 173.83 28.7064 174.607 27.8336C175.409 26.9607 175.785 25.9581 175.737 24.8257L175.555 20.6147L177.741 24.1533C177.401 24.4364 177.024 24.6488 176.611 24.7903C176.223 24.9083 175.798 24.9672 175.336 24.9672C174.656 24.9672 174.012 24.8257 173.405 24.5426C172.798 24.2595 172.312 23.8585 171.947 23.3394C171.583 22.7969 171.401 22.1363 171.401 21.3578C171.401 20.2726 171.802 19.3997 172.603 18.7392C173.405 18.055 174.364 17.713 175.482 17.713C176.988 17.713 178.117 18.2556 178.87 19.3408C179.623 20.4024 180 21.8886 180 23.7995C180 26.0406 179.344 27.9397 178.032 29.4967C176.745 31.0773 174.85 32.2451 172.348 33Z" fill="#0059FF"/>
<path d="M154.221 33C152.638 33 151.225 32.8312 149.983 32.4937C148.765 32.1803 147.79 31.6861 147.06 31.0111C146.353 30.3361 146 29.4682 146 28.4075C146 27.6843 146.231 27.0213 146.694 26.4186C147.181 25.816 147.888 25.2856 148.813 24.8275V24.6829C148.302 24.3454 147.863 23.9356 147.498 23.4534C147.157 22.9713 146.987 22.3565 146.987 21.6092C146.987 21.0065 147.181 20.4038 147.571 19.8011C147.985 19.1984 148.509 18.6801 149.142 18.2462V18.1015C148.485 17.6676 147.924 17.0529 147.462 16.2573C146.999 15.4618 146.767 14.5457 146.767 13.509C146.767 12.0626 147.121 10.8572 147.827 9.89291C148.558 8.9286 149.508 8.20538 150.677 7.72323C151.871 7.24108 153.149 7 154.513 7C155.634 7 156.633 7.14465 157.51 7.43394H164.854V11.3394H161.2C161.419 11.6045 161.602 11.9541 161.748 12.388C161.919 12.7979 162.004 13.2318 162.004 13.6898C162.004 15.064 161.663 16.197 160.981 17.089C160.323 17.9569 159.434 18.6078 158.313 19.0417C157.193 19.4757 155.926 19.6926 154.513 19.6926C154.172 19.6926 153.783 19.6685 153.344 19.6203C152.906 19.548 152.467 19.4516 152.029 19.331C151.737 19.5239 151.529 19.7167 151.408 19.9096C151.286 20.1025 151.225 20.3556 151.225 20.669C151.225 21.127 151.469 21.4645 151.956 21.6815C152.467 21.8985 153.247 22.007 154.294 22.007H157.656C160.043 22.007 161.858 22.3565 163.1 23.0556C164.367 23.7548 165 24.9119 165 26.5271C165 27.7807 164.562 28.8897 163.685 29.854C162.808 30.8424 161.553 31.6138 159.921 32.1683C158.313 32.7228 156.413 33 154.221 33ZM154.513 16.4743C155.025 16.4743 155.488 16.3658 155.902 16.1488C156.316 15.9319 156.645 15.6064 156.888 15.1725C157.132 14.7144 157.254 14.1599 157.254 13.509C157.254 12.8822 157.132 12.3519 156.888 11.9179C156.645 11.484 156.316 11.1586 155.902 10.9416C155.488 10.7005 155.025 10.58 154.513 10.58C154.026 10.58 153.576 10.7005 153.162 10.9416C152.747 11.1586 152.419 11.484 152.175 11.9179C151.931 12.3519 151.81 12.8822 151.81 13.509C151.81 14.1599 151.931 14.7144 152.175 15.1725C152.419 15.6064 152.747 15.9319 153.162 16.1488C153.576 16.3658 154.026 16.4743 154.513 16.4743ZM154.988 29.637C155.963 29.637 156.815 29.5406 157.546 29.3477C158.277 29.1548 158.849 28.8897 159.263 28.5522C159.678 28.2388 159.885 27.8771 159.885 27.4673C159.885 26.8646 159.617 26.4789 159.081 26.3102C158.545 26.1655 157.753 26.0932 156.706 26.0932H154.44C153.783 26.0932 153.235 26.0691 152.796 26.0209C152.382 25.9726 152.004 25.9124 151.663 25.8401C151.201 26.1293 150.872 26.4066 150.677 26.6718C150.482 26.9611 150.385 27.2745 150.385 27.612C150.385 28.2629 150.799 28.7571 151.627 29.0946C152.455 29.4562 153.576 29.637 154.988 29.637Z" fill="#030303"/>
<path d="M134 25C132.458 25 131 24.6538 129.625 23.9615C128.249 23.2462 127.134 22.2192 126.281 20.8808C125.427 19.5192 125 17.8923 125 16C125 14.1077 125.427 12.4923 126.281 11.1538C127.134 9.79231 128.249 8.76539 129.625 8.07308C131 7.35769 132.458 7 134 7C135.542 7 137 7.35769 138.375 8.07308C139.751 8.76539 140.866 9.79231 141.719 11.1538C142.573 12.4923 143 14.1077 143 16C143 17.8923 142.573 19.5192 141.719 20.8808C140.866 22.2192 139.751 23.2462 138.375 23.9615C137 24.6538 135.542 25 134 25ZM134 20.8808C134.806 20.8808 135.47 20.6846 135.992 20.2923C136.538 19.9 136.941 19.3346 137.202 18.5962C137.486 17.8577 137.628 16.9923 137.628 16C137.628 15.0077 137.486 14.1423 137.202 13.4038C136.941 12.6654 136.538 12.1 135.992 11.7077C135.47 11.3154 134.806 11.1192 134 11.1192C133.194 11.1192 132.518 11.3154 131.972 11.7077C131.451 12.1 131.047 12.6654 130.763 13.4038C130.502 14.1423 130.372 15.0077 130.372 16C130.372 16.9923 130.502 17.8577 130.763 18.5962C131.047 19.3346 131.451 19.9 131.972 20.2923C132.518 20.6846 133.194 20.8808 134 20.8808Z" fill="#030303"/>
<path d="M116.585 25C114.317 25 112.598 24.3446 111.427 23.0337C110.256 21.7228 109.671 19.9672 109.671 17.7669V4.03792H104V0H115.049V17.9775C115.049 19.0543 115.354 19.8034 115.963 20.2247C116.573 20.6227 117.244 20.8216 117.976 20.8216C118.415 20.8216 118.854 20.7748 119.293 20.6812C119.756 20.5875 120.268 20.4471 120.829 20.2598L122 24.052C121.073 24.3329 120.22 24.5552 119.439 24.7191C118.683 24.9064 117.732 25 116.585 25Z" fill="#030303"/>
<path d="M84 11.7143V8H101V11.7143H84ZM84 20V16.2857H101V20H84Z" fill="#030303"/>
<path d="M72.775 25C70.9333 25 69.2688 24.6538 67.7813 23.9615C66.3174 23.2462 65.1486 22.2192 64.275 20.8808C63.425 19.5192 63 17.8923 63 16C63 14.1077 63.4722 12.4923 64.4167 11.1538C65.3611 9.79231 66.6007 8.76539 68.1354 8.07308C69.6938 7.35769 71.3701 7 73.1646 7C74.5576 7 75.8208 7.21923 76.9542 7.65769C78.0875 8.07308 79.0201 8.62692 79.7521 9.31923L77.3438 12.4692C76.659 12.0077 75.9979 11.6731 75.3604 11.4654C74.7465 11.2346 74.109 11.1192 73.4479 11.1192C72.4563 11.1192 71.5708 11.3154 70.7917 11.7077C70.0125 12.1 69.4104 12.6654 68.9854 13.4038C68.5604 14.1423 68.3479 15.0077 68.3479 16C68.3479 16.9923 68.5486 17.8577 68.95 18.5962C69.375 19.3346 69.9535 19.9 70.6854 20.2923C71.441 20.6846 72.3028 20.8808 73.2708 20.8808C74.1917 20.8808 75.0299 20.7192 75.7854 20.3962C76.5646 20.0731 77.2729 19.6923 77.9104 19.2538L80 22.4731C78.9611 23.3269 77.7924 23.9615 76.4938 24.3769C75.2188 24.7923 73.9792 25 72.775 25Z" fill="#0059FF"/>
<path d="M47.846 25C46.6505 25 45.6104 24.7692 44.7257 24.3077C43.865 23.8462 43.1955 23.2231 42.7173 22.4385C42.2391 21.6538 42 20.7769 42 19.8077C42 17.8923 42.8966 16.4269 44.6899 15.4115C46.507 14.3962 49.5197 13.7731 53.7278 13.5423C53.6561 13.0115 53.4768 12.5615 53.1899 12.1923C52.903 11.8231 52.4845 11.5462 51.9346 11.3615C51.4086 11.1538 50.7391 11.05 49.9262 11.05C49.3523 11.05 48.7785 11.1192 48.2046 11.2577C47.6308 11.3731 47.0331 11.5577 46.4114 11.8115C45.8136 12.0423 45.18 12.3192 44.5105 12.6423L42.6456 9.31923C43.4585 8.85769 44.3073 8.45385 45.192 8.10769C46.1006 7.76154 47.0331 7.49615 47.9895 7.31154C48.9698 7.10385 49.962 7 50.9662 7C52.6399 7 54.0745 7.28846 55.27 7.86538C56.4655 8.41923 57.3861 9.27308 58.0316 10.4269C58.6772 11.5577 59 13 59 14.7538V24.5846H54.6962L54.3017 22.6462H54.1582C53.2736 23.2923 52.2933 23.8462 51.2173 24.3077C50.1414 24.7692 49.0176 25 47.846 25ZM49.5316 21.0538C50.3207 21.0538 51.0619 20.9038 51.7553 20.6038C52.4487 20.2808 53.1062 19.8885 53.7278 19.4269V16.5885C51.9824 16.6808 50.6196 16.8538 49.6392 17.1077C48.6828 17.3615 48.0134 17.6846 47.6308 18.0769C47.2482 18.4692 47.057 18.9192 47.057 19.4269C47.057 19.7731 47.1526 20.0731 47.3439 20.3269C47.5591 20.5808 47.846 20.7654 48.2046 20.8808C48.5872 20.9962 49.0295 21.0538 49.5316 21.0538Z" fill="#0059FF"/>
<path d="M26.6879 25V7.15288C26.6879 5.82048 26.9622 4.61664 27.5109 3.54137C28.0835 2.44273 28.9423 1.57784 30.0875 0.946704C31.2565 0.315568 32.7714 0 34.6322 0C35.6581 0 36.6243 0.105189 37.5308 0.315568C38.4374 0.502572 39.2604 0.71295 40 0.946704L38.998 4.73352C38.4254 4.52314 37.829 4.35952 37.2087 4.24264C36.6123 4.12576 35.9682 4.06732 35.2763 4.06732C34.1551 4.06732 33.3201 4.31276 32.7714 4.80365C32.2227 5.29453 31.9483 6.06592 31.9483 7.11781V25H26.6879ZM22 11.641V7.81908L26.8668 7.6087H38.0676V11.641H22Z" fill="#0059FF"/>
<path d="M8.48255 25C6.94661 25 5.42231 24.7462 3.90965 24.2385C2.39699 23.7077 1.09377 23.0846 0 22.3692L2.19918 19.1846C3.24641 19.8538 4.35181 20.3615 5.5154 20.7077C6.70226 21.0538 7.92403 21.2269 9.1807 21.2269C10.1348 21.2269 10.833 21.0885 11.2752 20.8115C11.7173 20.5115 11.9384 20.1654 11.9384 19.7731C11.9384 19.5192 11.8686 19.3115 11.729 19.15C11.6126 18.9654 11.3915 18.8038 11.0657 18.6654C10.7632 18.5038 10.3326 18.3538 9.77413 18.2154C9.23888 18.0769 8.54073 17.9154 7.67967 17.7308C5.32923 17.2231 3.64203 16.5308 2.61807 15.6538C1.59411 14.7769 1.08214 13.6808 1.08214 12.3654C1.08214 10.75 1.79192 9.45769 3.2115 8.48846C4.63107 7.49615 6.57426 7 9.04107 7C10.6003 7 12.0082 7.25385 13.2649 7.76154C14.5448 8.24615 15.6386 8.77692 16.5462 9.35384L14.2423 12.4C13.3812 11.8692 12.462 11.4654 11.4846 11.1885C10.5072 10.9115 9.54141 10.7731 8.58727 10.7731C8.05202 10.7731 7.60986 10.8308 7.26078 10.9462C6.9117 11.0385 6.64408 11.2 6.45791 11.4308C6.27173 11.6385 6.17864 11.8692 6.17864 12.1231C6.17864 12.5846 6.48118 12.9308 7.08624 13.1615C7.69131 13.3692 8.7269 13.6346 10.193 13.9577C11.9617 14.35 13.3463 14.8 14.347 15.3077C15.3477 15.8154 16.0342 16.4038 16.4066 17.0731C16.8022 17.7192 17 18.5154 17 19.4615C17 20.5 16.6742 21.4346 16.0226 22.2654C15.3943 23.0962 14.4401 23.7654 13.1602 24.2731C11.9035 24.7577 10.3443 25 8.48255 25Z" fill="#0059FF"/>
</svg>
