<svg width="18" height="18" viewBox="0 0 18 18" fill="none" xmlns="http://www.w3.org/2000/svg">
<path d="M6.91828 3.00166C6.7041 3.00124 6.49653 3.07583 6.33161 3.21249C6.23879 3.28944 6.16207 3.38395 6.10583 3.49061C6.04959 3.59726 6.01494 3.71396 6.00387 3.83402C5.9928 3.95408 6.00553 4.07515 6.04132 4.19028C6.07711 4.30542 6.13526 4.41236 6.21245 4.50499L10.3191 9.41832L6.35911 14.3408C6.28297 14.4346 6.22611 14.5425 6.1918 14.6583C6.15748 14.7741 6.1464 14.8955 6.15918 15.0157C6.17195 15.1358 6.20834 15.2522 6.26625 15.3582C6.32416 15.4642 6.40245 15.5577 6.49661 15.6333C6.59146 15.7168 6.70253 15.7797 6.82285 15.8182C6.94317 15.8567 7.07016 15.8699 7.19582 15.857C7.32149 15.8441 7.44314 15.8053 7.55312 15.7432C7.6631 15.681 7.75905 15.5968 7.83495 15.4958L12.2624 9.99582C12.3973 9.8318 12.471 9.62606 12.471 9.41374C12.471 9.20142 12.3973 8.99568 12.2624 8.83166L7.67911 3.33166C7.58716 3.22073 7.47034 3.13303 7.33815 3.0757C7.20596 3.01836 7.06211 2.993 6.91828 3.00166Z" fill="#4D4D4D"/>
</svg>
