<svg width="18" height="18" viewBox="0 0 18 18" fill="none" xmlns="http://www.w3.org/2000/svg">
<path fill-rule="evenodd" clip-rule="evenodd" d="M4.75596 1.10406C5.57399 0.765218 6.45075 0.59082 7.33617 0.59082C8.2216 0.59082 9.09836 0.765218 9.91639 1.10406C10.7344 1.4429 11.4777 1.93954 12.1038 2.56563C12.7299 3.19172 13.2265 3.935 13.5654 4.75303C13.9042 5.57106 14.0786 6.44782 14.0786 7.33325C14.0786 8.21867 13.9042 9.09543 13.5654 9.91346C13.3431 10.4499 13.053 10.9543 12.7031 11.4145L17.1457 15.8571C17.5007 16.2121 17.5007 16.7877 17.1457 17.1427C16.7906 17.4978 16.215 17.4978 15.86 17.1427L11.4174 12.7001C10.9572 13.0501 10.4529 13.3402 9.91639 13.5624C9.09836 13.9013 8.2216 14.0757 7.33617 14.0757C6.45075 14.0757 5.57399 13.9013 4.75596 13.5624C3.93793 13.2236 3.19465 12.727 2.56856 12.1009C1.94247 11.4748 1.44583 10.7315 1.10699 9.91346C0.768148 9.09543 0.59375 8.21867 0.59375 7.33325C0.59375 6.44782 0.768148 5.57106 1.10699 4.75303C1.44583 3.935 1.94247 3.19172 2.56856 2.56563C3.19465 1.93954 3.93793 1.4429 4.75596 1.10406ZM7.33617 2.409C6.68951 2.409 6.04919 2.53637 5.45175 2.78384C4.85431 3.0313 4.31147 3.39402 3.85421 3.85128C3.39695 4.30854 3.03423 4.85138 2.78677 5.44882C2.5393 6.04626 2.41193 6.68658 2.41193 7.33325C2.41193 7.97991 2.5393 8.62023 2.78677 9.21767C3.03423 9.81511 3.39695 10.358 3.85421 10.8152C4.31147 11.2725 4.85431 11.6352 5.45175 11.8827C6.04918 12.1301 6.68951 12.2575 7.33617 12.2575C7.98284 12.2575 8.62317 12.1301 9.2206 11.8827C9.81804 11.6352 10.3609 11.2725 10.8181 10.8152C11.2754 10.358 11.6381 9.81511 11.8856 9.21767C12.133 8.62024 12.2604 7.97991 12.2604 7.33325C12.2604 6.68658 12.133 6.04626 11.8856 5.44882C11.6381 4.85138 11.2754 4.30854 10.8181 3.85128C10.3609 3.39402 9.81804 3.0313 9.2206 2.78384C8.62316 2.53637 7.98284 2.409 7.33617 2.409Z" fill="#030303"/>
</svg>
