<svg width="50" height="50" viewBox="0 0 50 50" fill="none" xmlns="http://www.w3.org/2000/svg">
<path d="M50 25C50 38.8071 38.8071 50 25 50C11.1929 50 0 38.8071 0 25C0 11.1929 11.1929 0 25 0C38.8071 0 50 11.1929 50 25Z" fill="#0059FF"/>
<path fill-rule="evenodd" clip-rule="evenodd" d="M12.5797 13.3111C14.2846 11.2173 16.8544 10 19.57 10H36.5623C36.8737 10 37.1836 10.0437 37.4827 10.1298C38.6167 10.4562 39.488 11.3581 39.7674 12.4946L39.8809 12.9564C40.5137 15.5309 38.5452 18.0127 35.8702 18.0127H20.8151C20.1618 18.0127 19.6321 18.5373 19.6321 19.1845C19.6321 19.8369 20.1701 20.3637 20.8288 20.3562L29.7634 20.2542C34.9638 20.1948 39.2379 24.3039 39.3334 29.4548C39.4305 34.6979 35.1664 39 29.8725 39H15.2004C14.2625 39 14.2625 38.1052 14.2625 36.904V34.65C14.2625 32.2832 13.9 30.3 15.35 30.3L29.2454 30.4292C30.3183 30.4292 31.0834 29.3984 30.7634 28.3839C30.556 27.7262 29.941 27.2783 29.2454 27.2783H18.5014C15.3707 27.2783 12.5866 25.3059 11.5749 22.3712C11.4134 21.9029 11.3008 21.4195 11.2388 20.9285L11.0083 19.1042C10.9357 18.5299 11.3469 18.0061 11.9267 17.9342C12.5065 17.8623 13.0353 18.2696 13.1079 18.8439L13.3384 20.6682C13.3825 21.0173 13.4625 21.3609 13.5773 21.6938C14.2965 23.7802 16.2757 25.1823 18.5014 25.1823H29.2454C30.8666 25.1823 32.2996 26.2261 32.7831 27.7589C33.5288 30.123 31.7457 32.5252 29.2454 32.5252H19.7C18.4793 32.5252 18.4944 33.5054 18.4944 34.7146V36.825C18.4944 36.8686 18.5301 36.904 18.5742 36.904H29.8725C33.9826 36.904 37.2932 33.5639 37.2178 29.4932C37.1437 25.4942 33.8253 22.3039 29.7878 22.35L20.8532 22.4521C19.0165 22.4731 17.5162 21.004 17.5162 19.1845C17.5162 17.3797 18.9932 15.9166 20.8151 15.9166H35.8702C37.174 15.9166 38.1334 14.7071 37.825 13.4522L37.7115 12.9904C37.6113 12.5829 37.2989 12.2596 36.8923 12.1425C36.785 12.1117 36.6739 12.096 36.5623 12.096H19.57C17.4942 12.096 15.5299 13.0265 14.2268 14.627L13.7613 15.1987C13.713 15.258 13.6723 15.323 13.6402 15.3923C13.3966 15.9184 12.7685 16.1491 12.2374 15.9077C11.7064 15.6663 11.4734 15.0442 11.7171 14.5181C11.8224 14.2909 11.9558 14.0775 12.1143 13.8828L12.5797 13.3111Z" fill="white"/>
<path d="M20 34.5C20 36.9853 17.9853 39 15.5 39C13.0147 39 11 36.9853 11 34.5C11 32.0147 13.0147 30 15.5 30C17.9853 30 20 32.0147 20 34.5Z" fill="white"/>
<path d="M40 14C40 16.2091 38.2091 18 36 18C33.7909 18 32 16.2091 32 14C32 11.7909 33.7909 10 36 10C38.2091 10 40 11.7909 40 14Z" fill="white"/>
</svg>
