<svg width="212" height="46" viewBox="0 0 212 46" fill="none" xmlns="http://www.w3.org/2000/svg">
<g filter="url(#filter0_d_316_4262)">
<path d="M202.777 16.5478C201.401 16.5478 200.267 16.0874 199.377 15.1664C198.513 14.2455 198.081 13.1214 198.081 11.7942C198.081 10.467 198.513 9.34294 199.377 8.42202C200.267 7.47401 201.401 7 202.777 7C204.181 7 205.314 7.47401 206.178 8.42202C207.042 9.34294 207.474 10.467 207.474 11.7942C207.474 13.1214 207.042 14.2455 206.178 15.1664C205.314 16.0874 204.181 16.5478 202.777 16.5478ZM199.498 38L198 34.5059C199.808 33.8829 201.144 33.0703 202.008 32.0681C202.899 31.066 203.317 29.9148 203.263 28.6147L203.061 23.7798L205.49 27.8427C205.112 28.1678 204.694 28.4115 204.235 28.574C203.803 28.7095 203.331 28.7772 202.818 28.7772C202.062 28.7772 201.347 28.6147 200.672 28.2896C199.997 27.9646 199.457 27.5041 199.053 26.9083C198.648 26.2853 198.445 25.5269 198.445 24.633C198.445 23.3871 198.891 22.3849 199.781 21.6265C200.672 20.841 201.738 20.4482 202.98 20.4482C204.653 20.4482 205.908 21.0712 206.745 22.3172C207.582 23.536 208 25.2425 208 27.4364C208 30.0096 207.271 32.19 205.814 33.9777C204.383 35.7925 202.278 37.1332 199.498 38Z" fill="#0059FF"/>
<path d="M178.087 37C176.337 37 174.775 36.8118 173.402 36.4353C172.056 36.0858 170.979 35.5345 170.171 34.7816C169.39 34.0287 169 33.0607 169 31.8776C169 31.0709 169.256 30.3315 169.767 29.6593C170.306 28.987 171.087 28.3955 172.11 27.8846V27.7232C171.544 27.3468 171.06 26.8897 170.656 26.3519C170.279 25.8141 170.09 25.1284 170.09 24.2949C170.09 23.6226 170.306 22.9504 170.737 22.2782C171.194 21.6059 171.773 21.0278 172.473 20.5438V20.3825C171.746 19.8985 171.127 19.2128 170.615 18.3255C170.104 17.4381 169.848 16.4163 169.848 15.2601C169.848 13.6467 170.238 12.3023 171.019 11.2267C171.827 10.1511 172.877 9.34446 174.169 8.80668C175.488 8.26889 176.902 8 178.41 8C179.648 8 180.752 8.16134 181.721 8.48401H189.838V12.8401H185.8C186.042 13.1358 186.244 13.5257 186.406 14.0097C186.594 14.4669 186.688 14.9509 186.688 15.4618C186.688 16.9944 186.312 18.2582 185.558 19.2531C184.831 20.2211 183.848 20.9471 182.61 21.4312C181.371 21.9152 179.971 22.1572 178.41 22.1572C178.033 22.1572 177.602 22.1303 177.117 22.0765C176.633 21.9958 176.148 21.8883 175.663 21.7538C175.34 21.9689 175.112 22.1841 174.977 22.3992C174.842 22.6143 174.775 22.8966 174.775 23.2462C174.775 23.7571 175.044 24.1335 175.583 24.3755C176.148 24.6175 177.01 24.7385 178.167 24.7385H181.883C184.521 24.7385 186.527 25.1284 187.9 25.9082C189.3 26.688 190 27.9787 190 29.7802C190 31.1785 189.515 32.4154 188.546 33.491C187.577 34.5934 186.19 35.4539 184.387 36.0723C182.61 36.6908 180.51 37 178.087 37ZM178.41 18.5675C178.975 18.5675 179.487 18.4465 179.944 18.2045C180.402 17.9624 180.765 17.5994 181.035 17.1154C181.304 16.6045 181.438 15.9861 181.438 15.2601C181.438 14.561 181.304 13.9694 181.035 13.4854C180.765 13.0014 180.402 12.6384 179.944 12.3964C179.487 12.1275 178.975 11.993 178.41 11.993C177.871 11.993 177.373 12.1275 176.915 12.3964C176.458 12.6384 176.094 13.0014 175.825 13.4854C175.556 13.9694 175.421 14.561 175.421 15.2601C175.421 15.9861 175.556 16.6045 175.825 17.1154C176.094 17.5994 176.458 17.9624 176.915 18.2045C177.373 18.4465 177.871 18.5675 178.41 18.5675ZM178.935 33.249C180.012 33.249 180.954 33.1414 181.762 32.9263C182.569 32.7112 183.202 32.4154 183.66 32.0389C184.117 31.6894 184.346 31.286 184.346 30.8289C184.346 30.1567 184.05 29.7265 183.458 29.5382C182.865 29.3769 181.99 29.2962 180.833 29.2962H178.329C177.602 29.2962 176.996 29.2694 176.512 29.2156C176.054 29.1618 175.637 29.0946 175.26 29.0139C174.748 29.3366 174.385 29.6458 174.169 29.9416C173.954 30.2643 173.846 30.6138 173.846 30.9903C173.846 31.7163 174.304 32.2675 175.219 32.644C176.135 33.0473 177.373 33.249 178.935 33.249Z" fill="#030303"/>
<path d="M155.5 29C153.702 29 152 28.5962 150.395 27.7885C148.791 26.9538 147.49 25.7558 146.494 24.1942C145.498 22.6058 145 20.7077 145 18.5C145 16.2923 145.498 14.4077 146.494 12.8462C147.49 11.2577 148.791 10.0596 150.395 9.25192C152 8.41731 153.702 8 155.5 8C157.298 8 159 8.41731 160.605 9.25192C162.209 10.0596 163.51 11.2577 164.506 12.8462C165.502 14.4077 166 16.2923 166 18.5C166 20.7077 165.502 22.6058 164.506 24.1942C163.51 25.7558 162.209 26.9538 160.605 27.7885C159 28.5962 157.298 29 155.5 29ZM155.5 24.1942C156.441 24.1942 157.215 23.9654 157.824 23.5077C158.46 23.05 158.931 22.3904 159.235 21.5288C159.567 20.6673 159.733 19.6577 159.733 18.5C159.733 17.3423 159.567 16.3327 159.235 15.4712C158.931 14.6096 158.46 13.95 157.824 13.4923C157.215 13.0346 156.441 12.8058 155.5 12.8058C154.559 12.8058 153.771 13.0346 153.134 13.4923C152.526 13.95 152.055 14.6096 151.723 15.4712C151.419 16.3327 151.267 17.3423 151.267 18.5C151.267 19.6577 151.419 20.6673 151.723 21.5288C152.055 22.3904 152.526 23.05 153.134 23.5077C153.771 23.9654 154.559 24.1942 155.5 24.1942Z" fill="#030303"/>
<path d="M135.984 30C133.463 30 131.553 29.2397 130.252 27.7191C128.951 26.1985 128.301 24.162 128.301 21.6095V5.68399H122V1H134.276V21.8539C134.276 23.103 134.615 23.9719 135.293 24.4607C135.97 24.9223 136.715 25.1531 137.528 25.1531C138.016 25.1531 138.504 25.0988 138.992 24.9902C139.507 24.8816 140.076 24.7186 140.699 24.5014L142 28.9003C140.97 29.2261 140.022 29.4841 139.154 29.6742C138.314 29.8914 137.257 30 135.984 30Z" fill="#030303"/>
<path d="M99 13.3333V9H118V13.3333H99ZM99 23V18.6667H118V23H99Z" fill="#030303"/>
<path d="M86.5 29C84.3333 29 82.375 28.5962 80.625 27.7885C78.9028 26.9538 77.5278 25.7558 76.5 24.1942C75.5 22.6058 75 20.7077 75 18.5C75 16.2923 75.5556 14.4077 76.6667 12.8462C77.7778 11.2577 79.2361 10.0596 81.0417 9.25192C82.875 8.41731 84.8472 8 86.9583 8C88.5972 8 90.0833 8.25577 91.4167 8.76731C92.75 9.25192 93.8472 9.89808 94.7083 10.7058L91.875 14.3808C91.0695 13.8423 90.2917 13.4519 89.5417 13.2096C88.8194 12.9404 88.0694 12.8058 87.2917 12.8058C86.125 12.8058 85.0833 13.0346 84.1667 13.4923C83.25 13.95 82.5417 14.6096 82.0417 15.4712C81.5417 16.3327 81.2917 17.3423 81.2917 18.5C81.2917 19.6577 81.5278 20.6673 82 21.5288C82.5 22.3904 83.1806 23.05 84.0417 23.5077C84.9306 23.9654 85.9444 24.1942 87.0833 24.1942C88.1667 24.1942 89.1528 24.0058 90.0417 23.6288C90.9583 23.2519 91.7917 22.8077 92.5417 22.2962L95 26.0519C93.7778 27.0481 92.4028 27.7885 90.875 28.2731C89.375 28.7577 87.9167 29 86.5 29Z" fill="#0059FF"/>
<path d="M57.5338 29C56.1976 29 55.0352 28.7308 54.0464 28.1923C53.0844 27.6538 52.3361 26.9269 51.8017 26.0115C51.2672 25.0962 51 24.0731 51 22.9423C51 20.7077 52.0021 18.9981 54.0063 17.8135C56.0373 16.6288 59.4044 15.9019 64.1076 15.6327C64.0274 15.0135 63.827 14.4885 63.5063 14.0577C63.1857 13.6269 62.718 13.3038 62.1034 13.0885C61.5155 12.8462 60.7672 12.725 59.8587 12.725C59.2173 12.725 58.5759 12.8058 57.9346 12.9673C57.2932 13.1019 56.6252 13.3173 55.9304 13.6135C55.2623 13.8827 54.5542 14.2058 53.8059 14.5827L51.7215 10.7058C52.6301 10.1673 53.5788 9.69615 54.5675 9.29231C55.583 8.88846 56.6252 8.57885 57.6941 8.36346C58.7897 8.12115 59.8987 8 61.0211 8C62.8917 8 64.4951 8.33654 65.8312 9.00961C67.1674 9.65577 68.1962 10.6519 68.9177 11.9981C69.6392 13.3173 70 15 70 17.0462V28.5154H65.1899L64.7489 26.2538H64.5886C63.5999 27.0077 62.5042 27.6538 61.3017 28.1923C60.0992 28.7308 58.8432 29 57.5338 29ZM59.4177 24.3962C60.2996 24.3962 61.128 24.2212 61.903 23.8712C62.6779 23.4942 63.4128 23.0365 64.1076 22.4981V19.1865C62.1568 19.2942 60.6336 19.4962 59.538 19.7923C58.4691 20.0885 57.7208 20.4654 57.2933 20.9231C56.8657 21.3808 56.6519 21.9058 56.6519 22.4981C56.6519 22.9019 56.7588 23.2519 56.9726 23.5481C57.2131 23.8442 57.5338 24.0596 57.9346 24.1942C58.3622 24.3288 58.8565 24.3962 59.4177 24.3962Z" fill="#0059FF"/>
<path d="M34.2087 29V8.29734C34.2087 6.75175 34.5136 5.35531 35.1233 4.10799C35.7594 2.83357 36.7137 1.8303 37.9861 1.09818C39.285 0.366059 40.9682 0 43.0358 0C44.1756 0 45.2492 0.12202 46.2565 0.366059C47.2637 0.582983 48.1783 0.827023 49 1.09818L47.8867 5.49088C47.2505 5.24685 46.5878 5.05704 45.8986 4.92146C45.2359 4.78588 44.5202 4.71809 43.7515 4.71809C42.5056 4.71809 41.5779 5.00281 40.9682 5.57223C40.3585 6.14166 40.0537 7.03647 40.0537 8.25666V29H34.2087ZM29 13.5035V9.07013L34.4076 8.82609H46.8529V13.5035H29Z" fill="#0059FF"/>
<path d="M13.9795 29C12.1725 29 10.3792 28.7038 8.59959 28.1115C6.81999 27.4923 5.28679 26.7654 4 25.9308L6.58727 22.2154C7.8193 22.9962 9.11978 23.5885 10.4887 23.9923C11.885 24.3962 13.3224 24.5981 14.8008 24.5981C15.9233 24.5981 16.7447 24.4365 17.2649 24.1135C17.7851 23.7635 18.0452 23.3596 18.0452 22.9019C18.0452 22.6058 17.963 22.3635 17.7988 22.175C17.6619 21.9596 17.4018 21.7712 17.0185 21.6096C16.6626 21.4212 16.1561 21.2462 15.499 21.0846C14.8693 20.9231 14.0479 20.7346 13.0349 20.5192C10.2697 19.9269 8.28474 19.1192 7.08008 18.0962C5.87543 17.0731 5.2731 15.7942 5.2731 14.2596C5.2731 12.375 6.10815 10.8673 7.77823 9.73654C9.44832 8.57885 11.7344 8 14.6365 8C16.4709 8 18.1273 8.29615 19.6058 8.88846C21.1116 9.45385 22.3984 10.0731 23.4661 10.7462L20.7556 14.3C19.7426 13.6808 18.6612 13.2096 17.5113 12.8865C16.3614 12.5635 15.2252 12.4019 14.1027 12.4019C13.473 12.4019 12.9528 12.4692 12.5421 12.6038C12.1314 12.7115 11.8166 12.9 11.5975 13.1692C11.3785 13.4115 11.269 13.6808 11.269 13.9769C11.269 14.5154 11.6249 14.9192 12.3368 15.1885C13.0486 15.4308 14.2669 15.7404 15.9918 16.1173C18.0726 16.575 19.7016 17.1 20.8789 17.6923C22.0561 18.2846 22.8638 18.9712 23.3018 19.7519C23.7673 20.5058 24 21.4346 24 22.5385C24 23.75 23.6167 24.8404 22.8501 25.8096C22.1109 26.7788 20.9884 27.5596 19.4825 28.1519C18.0041 28.7173 16.1697 29 13.9795 29Z" fill="#0059FF"/>
</g>
<defs>
<filter id="filter0_d_316_4262" x="0" y="0" width="212" height="46" filterUnits="userSpaceOnUse" color-interpolation-filters="sRGB">
<feFlood flood-opacity="0" result="BackgroundImageFix"/>
<feColorMatrix in="SourceAlpha" type="matrix" values="0 0 0 0 0 0 0 0 0 0 0 0 0 0 0 0 0 0 127 0" result="hardAlpha"/>
<feOffset dy="4"/>
<feGaussianBlur stdDeviation="2"/>
<feComposite in2="hardAlpha" operator="out"/>
<feColorMatrix type="matrix" values="0 0 0 0 0 0 0 0 0 0 0 0 0 0 0 0 0 0 0.25 0"/>
<feBlend mode="normal" in2="BackgroundImageFix" result="effect1_dropShadow_316_4262"/>
<feBlend mode="normal" in="SourceGraphic" in2="effect1_dropShadow_316_4262" result="shape"/>
</filter>
</defs>
</svg>
