<svg width="70" height="70" viewBox="0 0 70 70" fill="none" xmlns="http://www.w3.org/2000/svg">
<g clip-path="url(#clip0_572_21563)">
<path d="M35 69C53.7777 69 69 53.7777 69 35C69 16.2223 53.7777 1 35 1C16.2223 1 1 16.2223 1 35C1 53.7777 16.2223 69 35 69Z" fill="white" stroke="#F34F29" stroke-width="2"/>
<path d="M58.7282 32.804L37.1982 11.2751C35.9591 10.0353 33.9482 10.0353 32.7072 11.2751L28.2372 15.7462L33.9083 21.4173C35.2267 20.9724 36.7376 21.2708 37.788 22.3212C38.2886 22.8222 38.6381 23.454 38.7965 24.1443C38.9549 24.8346 38.9158 25.5556 38.6837 26.2247L44.1493 31.6911C45.4716 31.2353 46.9978 31.5298 48.0532 32.5876C49.5298 34.063 49.5298 36.4548 48.0532 37.931C47.7024 38.282 47.2857 38.5605 46.8272 38.7505C46.3686 38.9405 45.8771 39.0383 45.3808 39.0383C44.8844 39.0383 44.3929 38.9405 43.9344 38.7505C43.4758 38.5605 43.0592 38.282 42.7083 37.931C42.1811 37.4034 41.8218 36.7318 41.6755 36.0005C41.5291 35.2692 41.6024 34.5109 41.8861 33.8212L36.7892 28.7239L36.7884 42.1384C37.1582 42.3205 37.4958 42.5617 37.788 42.8524C39.2642 44.3278 39.2642 46.7188 37.788 48.1974C36.3118 49.6728 33.9193 49.6728 32.4447 48.1974C30.9689 46.7192 30.8478 44.3282 32.3232 42.8524C32.688 42.488 33.0478 42.2126 33.4384 42.0282V28.4896C33.0478 28.3052 32.6884 28.0317 32.3228 27.6649C31.2052 26.5478 30.9962 24.9071 31.5697 23.5337L26.0099 17.9427L11.2622 32.7044C10.022 33.9454 10.0298 35.9563 11.27 37.1966L32.8036 58.7255C34.0431 59.9653 36.0556 59.9653 37.297 58.7255L58.7267 37.2966C59.9669 36.056 59.9681 34.0438 58.7282 32.804Z" fill="#F34F29"/>
</g>
<defs>
<clipPath id="clip0_572_21563">
<rect width="70" height="70" fill="white"/>
</clipPath>
</defs>
</svg>
