<svg width="70" height="70" viewBox="0 0 70 70" fill="none" xmlns="http://www.w3.org/2000/svg">
<g clip-path="url(#clip0_572_21583)">
<path d="M35 69C53.7777 69 69 53.7777 69 35C69 16.2223 53.7777 1 35 1C16.2223 1 1 16.2223 1 35C1 53.7777 16.2223 69 35 69Z" stroke="#409433" stroke-width="2"/>
<path fill-rule="evenodd" clip-rule="evenodd" d="M45.5248 25.4253C46.2276 27.4581 46.7337 29.5334 46.9001 31.6845C47.1067 34.353 47.0121 37.0028 46.4495 39.6275C46.4342 39.6998 46.4018 39.7676 46.3777 39.8377C46.2013 39.8381 46.0213 39.8162 45.8488 39.8429C44.3913 40.0719 42.9351 40.3092 41.4789 40.5452C39.9736 40.7891 38.4662 41.0233 36.9636 41.2838C36.4312 41.3758 35.7723 41.2659 35.5573 42.0023C35.5512 42.0224 35.4899 42.0259 35.4544 42.0373L35.5271 37.6367L35.4531 27.0185L36.1545 26.8981C37.3016 26.7103 38.4487 26.5199 39.5967 26.3373C40.9666 26.1197 42.3379 25.9082 43.7087 25.6959C44.3134 25.6017 44.9189 25.5155 45.5248 25.4253Z" fill="#439934"/>
<path fill-rule="evenodd" clip-rule="evenodd" d="M34.0056 54.8657C33.2657 54.2295 32.5 53.6214 31.7907 52.9524C27.9741 49.3526 25.1826 45.1157 23.8078 40.0076C23.4291 38.6017 23.1764 37.1731 23.0954 35.7204C23.0385 34.7038 22.9562 33.6779 23.028 32.6666C23.2193 29.9765 23.6081 27.3124 24.3971 24.7213L24.4404 24.6609C24.5171 24.7629 24.6274 24.8531 24.6664 24.9682C25.4365 27.2362 26.2009 29.5059 26.9614 31.7769C29.3511 38.9135 31.7377 46.0518 34.1313 53.1866C34.1781 53.3259 34.2994 53.4401 34.3866 53.5658L34.0056 54.8657Z" fill="#45A538"/>
<path fill-rule="evenodd" clip-rule="evenodd" d="M45.5241 25.4253C44.9181 25.5155 44.3122 25.6017 43.7075 25.695C42.3367 25.9073 40.9654 26.1188 39.5955 26.3364C38.4475 26.519 37.3004 26.7094 36.1533 26.8973L35.4519 27.0177L35.4466 26.5601C35.4234 26.184 35.3836 25.8084 35.3792 25.4323C35.349 23.0339 35.3301 20.6355 35.3004 18.2371C35.282 16.7357 35.2544 15.2349 35.2237 13.734C35.2049 12.8014 35.1848 11.8684 35.1428 10.9372C35.12 10.4367 35.0394 9.93892 35.0066 9.43848C34.9882 9.15083 35.0136 8.86099 35.0193 8.57202C35.377 9.2651 35.7268 9.96344 36.0946 10.6513C36.6756 11.7388 37.6011 12.54 38.4343 13.4144C41.7281 16.8697 44.0665 20.8872 45.5241 25.4253Z" fill="#46A037"/>
<path fill-rule="evenodd" clip-rule="evenodd" d="M35.4563 42.037C35.4917 42.0256 35.5534 42.0221 35.5591 42.0019C35.7741 41.2655 36.433 41.3754 36.9654 41.2835C38.4681 41.0234 39.9755 40.7887 41.4807 40.5449C42.937 40.3089 44.3932 40.0716 45.8507 39.8426C46.0232 39.8154 46.2032 39.8378 46.3796 39.8373C46.1073 40.8093 45.8927 41.8023 45.5473 42.7476C45.155 43.8198 44.6804 44.8662 44.1765 45.892C43.422 47.4221 42.4883 48.857 41.3949 50.1665C40.5547 51.177 39.6182 52.1109 38.6795 53.0334C38.1607 53.5435 37.5491 53.959 36.9799 54.4174L36.8323 54.3167L36.3008 53.8622L35.7509 52.6569C35.3753 51.2508 35.1704 49.8046 35.1406 48.3496L35.1506 48.1039L35.2255 47.0418C35.2505 46.6792 35.2837 46.3172 35.2991 45.9538C35.3556 44.6482 35.4046 43.3426 35.4563 42.037Z" fill="#409433"/>
<path fill-rule="evenodd" clip-rule="evenodd" d="M35.4556 42.0371C35.4039 43.3427 35.3549 44.6483 35.2993 45.9544C35.2839 46.3177 35.2507 46.6798 35.2257 47.0424L34.8908 47.1689C34.1469 44.9789 33.4026 42.8121 32.6745 40.6396C31.4705 37.0454 30.2809 33.4456 29.0786 29.8506C28.1076 26.9489 27.1298 24.0495 26.1452 21.1523C26.0992 21.0166 25.967 20.9106 25.875 20.7907L28.0186 16.8494C28.0922 16.9772 28.1894 17.0967 28.2358 17.2342C29.2286 20.1686 30.2163 23.1047 31.199 26.0424C32.4757 29.8646 33.7445 33.6899 35.0204 37.5126C35.0712 37.6654 35.1552 37.8064 35.2353 37.9776L35.5287 37.6361L35.4556 42.0371Z" fill="#4FAA41"/>
<path fill-rule="evenodd" clip-rule="evenodd" d="M25.87 20.7913C25.962 20.9112 26.0938 21.0172 26.1402 21.1529C27.1247 24.0501 28.1026 26.9495 29.0736 29.8512C30.2759 33.4462 31.4655 37.046 32.6695 40.6401C33.3971 42.8122 34.1415 44.9794 34.8858 47.1695L35.2207 47.0429L35.1458 48.1051L35.078 48.3498C34.9615 49.5127 34.8634 50.6782 34.7216 51.8384C34.6502 52.4199 34.4987 52.9908 34.3836 53.5665C34.2969 53.4409 34.1752 53.3266 34.1283 53.1874C31.7347 46.0521 29.3481 38.9142 26.9585 31.7776C26.1982 29.5065 25.4332 27.2369 24.6634 24.969C24.6244 24.8539 24.5145 24.7637 24.4375 24.6616L25.87 20.7913Z" fill="#4AA73C"/>
<path fill-rule="evenodd" clip-rule="evenodd" d="M35.5256 37.6367L35.2323 37.9781C35.1522 37.8069 35.0681 37.6654 35.0173 37.5131C33.7419 33.6904 32.4727 29.8651 31.1959 26.0429C30.2133 23.1051 29.2255 20.1691 28.2327 17.2347C28.1868 17.0972 28.0896 16.9772 28.0156 16.8498L30.6666 13.3625C30.7502 13.4742 30.8693 13.5736 30.9127 13.6992C31.6487 15.8538 32.3781 18.011 33.1031 20.1694C33.7804 22.1852 34.4477 24.204 35.1329 26.2171C35.1789 26.352 35.3387 26.4474 35.4455 26.5613L35.4508 27.0188C35.4761 30.5574 35.5011 34.0972 35.5256 37.6367Z" fill="#57AE47"/>
<path fill-rule="evenodd" clip-rule="evenodd" d="M35.4508 26.5604C35.344 26.4465 35.1842 26.3511 35.1382 26.2162C34.453 24.2031 33.7858 22.1843 33.1084 20.1685C32.3834 18.01 31.654 15.8533 30.918 13.6983C30.8746 13.5727 30.7556 13.4733 30.6719 13.3616C31.534 12.5175 32.3694 11.6432 33.2661 10.838C34.0633 10.1226 34.7043 9.35551 34.7337 8.22504C34.735 8.1782 34.7595 8.13135 34.7971 8L35.0244 8.5718C35.0187 8.86121 34.9928 9.15061 35.0117 9.43826C35.0445 9.9387 35.1251 10.4365 35.1478 10.9369C35.1899 11.8682 35.21 12.8012 35.2288 13.7338C35.259 15.2347 35.2866 16.7355 35.3055 18.2368C35.3348 20.6352 35.3541 23.0337 35.3843 25.4321C35.3878 25.809 35.4272 26.1843 35.4508 26.5604Z" fill="#60B24F"/>
<path fill-rule="evenodd" clip-rule="evenodd" d="M34.3887 53.5658C34.5038 52.9901 34.6553 52.4187 34.7267 51.8377C34.869 50.6779 34.9666 49.512 35.0831 48.3491L35.112 48.3447L35.1409 48.3495C35.1707 49.8046 35.3756 51.2508 35.7512 52.6569C35.6742 52.7585 35.5651 52.8491 35.5244 52.9638C35.2061 53.8613 34.9062 54.7659 34.5862 55.6634C34.5424 55.786 34.4207 55.8815 34.3348 55.9892L34.0078 54.8657L34.3887 53.5658Z" fill="#A9AA88"/>
<path fill-rule="evenodd" clip-rule="evenodd" d="M34.3359 55.99C34.4217 55.8823 34.5438 55.7869 34.5872 55.6643C34.9072 54.7667 35.2076 53.8626 35.5254 52.9646C35.5662 52.8499 35.6747 52.7593 35.7522 52.6577L36.3017 53.8635C36.1931 54.0176 36.0434 54.1564 35.983 54.328L34.9304 57.4186C34.8871 57.5425 34.7391 57.6301 34.6402 57.7348L34.3359 55.99Z" fill="#B6B598"/>
<path fill-rule="evenodd" clip-rule="evenodd" d="M34.6406 57.7341C34.7399 57.6299 34.8875 57.5419 34.9308 57.4179L35.9834 54.3273C36.0434 54.1561 36.1935 54.0169 36.3021 53.8628L36.8341 54.3168C36.5771 54.5708 36.4343 54.8641 36.5202 55.2349L36.3586 55.7638C36.285 55.8545 36.1786 55.9333 36.1423 56.037C35.775 57.0891 35.4243 58.1469 35.0543 59.199C35.0075 59.3326 34.8774 59.4372 34.7855 59.5545C34.7378 58.9473 34.6892 58.3413 34.6406 57.7341Z" fill="#C2C1A7"/>
<path fill-rule="evenodd" clip-rule="evenodd" d="M34.7798 59.5544C34.8714 59.4366 35.0014 59.332 35.0487 59.1989C35.4186 58.1472 35.7693 57.0894 36.1367 56.0369C36.173 55.9335 36.279 55.8543 36.353 55.7637L36.1301 58.1914C36.0706 58.2602 35.9843 58.3201 35.9558 58.4003C35.7041 59.1069 35.4668 59.8188 35.2142 60.5255C35.1621 60.6713 35.0622 60.8 34.9843 60.9362C34.9151 60.8455 34.7912 60.758 34.7855 60.6634C34.7632 60.2952 34.7785 59.9243 34.7798 59.5544Z" fill="#CECDB7"/>
<path fill-rule="evenodd" clip-rule="evenodd" d="M34.9844 60.9364C35.0624 60.7998 35.1622 60.6711 35.2143 60.5257C35.4674 59.8195 35.7042 59.1076 35.956 58.4005C35.9844 58.3204 36.0711 58.2608 36.1302 58.1917L36.1355 59.7853L35.6022 61.153L34.9844 60.9364Z" fill="#DBDAC7"/>
<path fill-rule="evenodd" clip-rule="evenodd" d="M35.6016 61.1534L36.1349 59.7856L36.2448 61.4039L35.6016 61.1534Z" fill="#EBE9DC"/>
<path fill-rule="evenodd" clip-rule="evenodd" d="M36.5172 55.2355C36.4314 54.8647 36.5737 54.5709 36.8311 54.3174L36.9787 54.4181L36.5172 55.2355Z" fill="#CECDB7"/>
<path fill-rule="evenodd" clip-rule="evenodd" d="M35.1359 48.3502L35.107 48.3453L35.0781 48.3497L35.146 48.105L35.1359 48.3502Z" fill="#4FAA41"/>
</g>
<defs>
<clipPath id="clip0_572_21583">
<rect width="70" height="70" fill="white"/>
</clipPath>
</defs>
</svg>
