<svg width="70" height="70" viewBox="0 0 70 70" fill="none" xmlns="http://www.w3.org/2000/svg">
<g clip-path="url(#clip0_572_21608)">
<path d="M35 69C53.7777 69 69 53.7777 69 35C69 16.2223 53.7777 1 35 1C16.2223 1 1 16.2223 1 35C1 53.7777 16.2223 69 35 69Z" fill="white" stroke="black" stroke-width="2"/>
<path d="M35 10C21.2109 10 10 21.2109 10 35C10 48.7891 21.2109 60 35 60C39.375 60 43.4766 58.8672 47.0313 56.9141L28.9063 31.6016V45.8984H26.25V26.3281H28.9063L48.6328 55.9375C55.4688 51.4844 60 43.7891 60 35C60 21.2109 48.7891 10 35 10ZM43.6328 43.0469L40.7031 38.6328V26.3281H43.6328V43.0469Z" fill="black"/>
</g>
<defs>
<clipPath id="clip0_572_21608">
<rect width="70" height="70" fill="white"/>
</clipPath>
</defs>
</svg>
