<svg width="22" height="22" viewBox="0 0 22 22" fill="none" xmlns="http://www.w3.org/2000/svg">
<path d="M8.91828 5.00166C8.7041 5.00124 8.49653 5.07583 8.33161 5.21249C8.23879 5.28944 8.16207 5.38395 8.10583 5.49061C8.04959 5.59726 8.01494 5.71396 8.00387 5.83402C7.9928 5.95408 8.00553 6.07515 8.04132 6.19028C8.07711 6.30542 8.13526 6.41236 8.21245 6.50499L12.3191 11.4183L8.35911 16.3408C8.28297 16.4346 8.22611 16.5425 8.1918 16.6583C8.15748 16.7741 8.1464 16.8955 8.15918 17.0157C8.17195 17.1358 8.20834 17.2522 8.26625 17.3582C8.32416 17.4642 8.40245 17.5577 8.49661 17.6333C8.59146 17.7168 8.70253 17.7797 8.82285 17.8182C8.94317 17.8567 9.07016 17.8699 9.19582 17.857C9.32149 17.8441 9.44314 17.8053 9.55312 17.7432C9.6631 17.681 9.75905 17.5968 9.83495 17.4958L14.2624 11.9958C14.3973 11.8318 14.471 11.6261 14.471 11.4137C14.471 11.2014 14.3973 10.9957 14.2624 10.8317L9.67911 5.33166C9.58716 5.22073 9.47034 5.13303 9.33815 5.0757C9.20596 5.01836 9.06211 4.993 8.91828 5.00166Z" fill="#4D4D4D"/>
</svg>
