<svg width="22" height="23" viewBox="0 0 22 23" fill="none" xmlns="http://www.w3.org/2000/svg">
<path d="M9.02185 20.7204H6.52966C6.03001 20.7205 5.54588 20.5468 5.16034 20.229C4.77479 19.9112 4.51185 19.4691 4.41663 18.9786L3.49263 15.6425C2.67107 13.3119 3.02857 12.0713 3.47407 11.4409C3.6469 11.1895 3.87905 10.9847 4.14995 10.8445C4.42084 10.7043 4.72213 10.6331 5.02713 10.6372H7.069C6.96414 9.79508 6.99291 8.9417 7.15425 8.10856C7.65063 6.12272 8.73791 6.03575 9.181 6.09075C9.87435 6.176 10.5055 6.77997 10.5055 7.35747C10.4727 7.87619 10.5459 8.39615 10.7208 8.88563C10.8956 9.3751 11.1683 9.82382 11.5223 10.2044C12.557 11.2387 14.4235 11.5155 14.4421 11.5182C14.5091 11.5278 14.5736 11.5505 14.6319 11.585C14.6902 11.6195 14.7411 11.6651 14.7817 11.7193C14.8223 11.7734 14.8519 11.8351 14.8687 11.9007C14.8855 11.9663 14.8893 12.0345 14.8797 12.1016C14.8701 12.1686 14.8474 12.2331 14.8129 12.2914C14.7785 12.3496 14.7328 12.4005 14.6786 12.4412C14.6245 12.4818 14.5628 12.5114 14.4972 12.5282C14.4316 12.545 14.3634 12.5487 14.2963 12.5392C14.2059 12.5264 12.0678 12.2085 10.7932 10.9338C10.3454 10.462 9.99766 9.90436 9.77098 9.29459C9.54431 8.68481 9.44336 8.03547 9.47422 7.38566C9.421 7.30421 9.34895 7.23676 9.26417 7.18902C9.17939 7.14128 9.08437 7.11463 8.98713 7.11134C8.65782 7.12475 8.34672 7.59122 8.15457 8.35881C7.8916 9.41069 8.16041 11.0521 8.16316 11.0683C8.1755 11.1421 8.17158 11.2178 8.15169 11.2901C8.13181 11.3623 8.09642 11.4293 8.048 11.4865C7.99958 11.5436 7.93928 11.5895 7.87131 11.621C7.80334 11.6525 7.72932 11.6688 7.65441 11.6688H5.02713C4.88728 11.6649 4.74875 11.6966 4.62448 11.7609C4.50022 11.8252 4.39429 11.9199 4.3166 12.0363C4.11482 12.3216 3.72603 13.2126 4.47094 15.3156C4.47507 15.327 4.4785 15.3387 4.48194 15.35L5.41591 18.7239C5.42003 18.739 5.42347 18.7538 5.42622 18.7689C5.47332 19.0272 5.60957 19.2608 5.81122 19.4289C6.01287 19.597 6.26713 19.689 6.52966 19.6888H9.02185C10.9193 19.6888 13.4511 19.2667 13.999 18.7012C14.0945 18.6043 14.2244 18.549 14.3604 18.5474C14.4965 18.5458 14.6276 18.598 14.7253 18.6927C14.823 18.7874 14.8793 18.9169 14.882 19.0529C14.8846 19.189 14.8334 19.3205 14.7394 19.419C13.7096 20.4812 10.1779 20.7201 9.0215 20.7201L9.02185 20.7204Z" fill="#0059FF"/>
<path d="M17.7704 20.6531H14.3724C14.2357 20.6531 14.1045 20.5988 14.0078 20.5021C13.9111 20.4054 13.8568 20.2742 13.8568 20.1375V11.3602C13.8568 11.2234 13.9111 11.0923 14.0078 10.9956C14.1045 10.8989 14.2357 10.8445 14.3724 10.8445H17.7704C17.9071 10.8445 18.0383 10.8989 18.135 10.9956C18.2317 11.0923 18.286 11.2234 18.286 11.3602V20.1375C18.286 20.2742 18.2317 20.4054 18.135 20.5021C18.0383 20.5988 17.9071 20.6531 17.7704 20.6531ZM14.8881 19.6218H17.2548V11.8758H14.8881V19.6218ZM8.94668 4.98944C8.80992 4.98944 8.67877 4.93511 8.58207 4.83841C8.48538 4.74172 8.43105 4.61056 8.43105 4.47381V3.01562C8.43105 2.87887 8.48538 2.74772 8.58207 2.65102C8.67877 2.55432 8.80992 2.5 8.94668 2.5C9.08343 2.5 9.21458 2.55432 9.31128 2.65102C9.40798 2.74772 9.4623 2.87887 9.4623 3.01562V4.47381C9.4623 4.61056 9.40798 4.74172 9.31128 4.83841C9.21458 4.93511 9.08343 4.98944 8.94668 4.98944ZM11.6039 6.49712C11.4911 6.49721 11.3815 6.46036 11.2917 6.3922C11.2019 6.32404 11.1369 6.22834 11.1067 6.11973C11.0765 6.01113 11.0827 5.89562 11.1244 5.79088C11.166 5.68613 11.2409 5.59793 11.3375 5.53978L12.5866 4.788C12.6447 4.75191 12.7093 4.72772 12.7768 4.71683C12.8442 4.70594 12.9132 4.70857 12.9797 4.72457C13.0461 4.74057 13.1087 4.76962 13.1638 4.81002C13.2189 4.85043 13.2655 4.90139 13.3007 4.95995C13.3359 5.0185 13.3592 5.08347 13.3691 5.15109C13.379 5.21871 13.3754 5.28763 13.3584 5.35383C13.3415 5.42003 13.3115 5.48221 13.2703 5.53673C13.2291 5.59125 13.1775 5.63704 13.1184 5.67144L11.8692 6.42287C11.7892 6.4712 11.6974 6.4971 11.6039 6.49712ZM6.28949 6.49712C6.19595 6.49712 6.10419 6.47156 6.02411 6.42322L4.77458 5.67144C4.65955 5.5999 4.57729 5.48598 4.54558 5.35429C4.51387 5.22259 4.53525 5.08371 4.60511 4.96765C4.67497 4.8516 4.78769 4.7677 4.91891 4.73408C5.05013 4.70046 5.18931 4.71983 5.30636 4.788L6.5559 5.53978C6.65247 5.59793 6.72732 5.68613 6.76899 5.79088C6.81067 5.89562 6.81687 6.01113 6.78665 6.11973C6.75643 6.22834 6.69145 6.32404 6.60166 6.3922C6.51187 6.46036 6.40222 6.49721 6.28949 6.49712Z" fill="#0059FF"/>
</svg>
