<svg width="19" height="21" viewBox="0 0 19 21" fill="none" xmlns="http://www.w3.org/2000/svg">
<path d="M15.8333 14.8434C15.0311 14.8434 14.3133 15.1596 13.7644 15.6551L6.23833 11.2801C6.29111 11.0377 6.33333 10.7952 6.33333 10.5422C6.33333 10.2892 6.29111 10.0467 6.23833 9.80422L13.68 5.47139C14.25 5.99849 14.9994 6.3253 15.8333 6.3253C17.5856 6.3253 19 4.91265 19 3.16265C19 1.41265 17.5856 0 15.8333 0C14.0811 0 12.6667 1.41265 12.6667 3.16265C12.6667 3.41566 12.7089 3.65813 12.7617 3.9006L5.32 8.23343C4.75 7.70633 4.00056 7.37952 3.16667 7.37952C1.41444 7.37952 0 8.79217 0 10.5422C0 12.2922 1.41444 13.7048 3.16667 13.7048C4.00056 13.7048 4.75 13.378 5.32 12.8509L12.8356 17.2364C12.7828 17.4578 12.7511 17.6898 12.7511 17.9217C12.7511 19.619 14.1339 21 15.8333 21C17.5328 21 18.9156 19.619 18.9156 17.9217C18.9156 16.2244 17.5328 14.8434 15.8333 14.8434Z" fill="#999999"/>
</svg>
