<svg width="35" height="35" viewBox="0 0 35 35" fill="none" xmlns="http://www.w3.org/2000/svg">
<path d="M35 17.6066C35 7.88174 27.166 0 17.5 0C7.83402 0 0 7.88174 0 17.6066C0 26.3962 6.39844 33.6795 14.7656 35V22.696H10.3222V17.6066H14.7656V13.7276C14.7656 9.31565 17.377 6.87758 21.376 6.87758C23.29 6.87758 25.293 7.22145 25.293 7.22145V11.5543H23.085C20.9111 11.5543 20.2344 12.9127 20.2344 14.3054V17.6066H25.0879L24.312 22.696H20.2344V35C28.6016 33.6795 35 26.3962 35 17.6066Z" fill="#337AFF"/>
<path d="M23.9188 22.5639L24.6847 17.5075H19.8938V14.2276C19.8938 12.8439 20.5618 11.4944 22.7076 11.4944H24.8872V7.18955C24.8872 7.18955 22.91 6.8479 21.0206 6.8479C17.0732 6.8479 14.4955 9.27019 14.4955 13.6536V17.5075H10.1094V22.5639H14.4955V34.7883C15.3761 34.9284 16.2769 35.0001 17.1946 35.0001C18.1123 35.0001 19.0132 34.9284 19.8938 34.7883V22.5639H23.9188Z" fill="white"/>
</svg>
