<svg width="35" height="35" viewBox="0 0 35 35" fill="none" xmlns="http://www.w3.org/2000/svg">
<circle cx="17.5" cy="17.5" r="17" fill="white" stroke="#E6E6E6"/>
<path fill-rule="evenodd" clip-rule="evenodd" d="M17.5111 5C10.0399 5 4 10.7291 4 17.8169C4 23.4825 7.86995 28.2782 13.2385 29.9757C13.9098 30.1034 14.1556 29.6999 14.1556 29.3607C14.1556 29.0635 14.1334 28.045 14.1334 26.9838C10.375 27.7479 9.59233 25.456 9.59233 25.456C8.98823 23.9706 8.09334 23.5888 8.09334 23.5888C6.86318 22.8037 8.18289 22.8037 8.18289 22.8037C9.54746 22.8885 10.2634 24.1193 10.2634 24.1193C11.4713 26.0714 13.4174 25.5198 14.2002 25.1802C14.3119 24.3527 14.6701 23.7797 15.0504 23.4615C12.0528 23.1643 8.89887 22.061 8.89887 17.1378C8.89887 15.7373 9.43539 14.5916 10.2856 13.7004C10.1514 13.3822 9.68149 12.0663 10.42 10.305C10.42 10.305 11.5608 9.96541 14.1332 11.6207C15.2345 11.34 16.3703 11.1975 17.5111 11.1962C18.6519 11.1962 19.8149 11.3449 20.8889 11.6207C23.4615 9.96541 24.6023 10.305 24.6023 10.305C25.3406 12.0662 24.8705 13.3822 24.7365 13.7004C25.609 14.5916 26.1234 15.7373 26.1234 17.1378C26.1234 22.061 22.9694 23.1431 19.9495 23.4615C20.4417 23.8646 20.8665 24.6285 20.8665 25.838C20.8665 27.5567 20.8444 28.9362 20.8444 29.3603C20.8444 29.6999 21.0905 30.1034 21.7614 29.9759C27.13 28.278 30.9999 23.4825 30.9999 17.8169C31.0221 10.7291 24.9601 5 17.5111 5Z" fill="#030303"/>
</svg>
