<svg width="35" height="35" viewBox="0 0 35 35" fill="none" xmlns="http://www.w3.org/2000/svg">
<circle cx="17.5" cy="17.5" r="17.5" fill="url(#paint0_radial_573_7463)"/>
<circle cx="17.5" cy="17.5" r="17.5" fill="url(#paint1_radial_573_7463)"/>
<path d="M17.5009 8C14.9208 8 14.597 8.01188 13.5837 8.06042C12.5723 8.10917 11.882 8.27771 11.2779 8.525C10.6531 8.78042 10.1231 9.12208 9.59503 9.67813C9.06658 10.234 8.742 10.7919 8.49856 11.4494C8.26303 12.0854 8.10272 12.8123 8.0572 13.8765C8.01188 14.9431 8 15.2842 8 18C8 20.7158 8.01148 21.0556 8.0574 22.1223C8.10391 23.1869 8.26402 23.9135 8.49876 24.5494C8.7416 25.2071 9.06619 25.765 9.59443 26.3208C10.1223 26.8771 10.6523 27.2196 11.2767 27.475C11.8812 27.7223 12.5717 27.8908 13.5829 27.9396C14.5962 27.9881 14.9198 28 17.4997 28C20.08 28 20.4028 27.9881 21.4161 27.9396C22.4275 27.8908 23.1186 27.7223 23.7231 27.475C24.3477 27.2196 24.8769 26.8771 25.4048 26.3208C25.9332 25.765 26.2578 25.2071 26.5012 24.5496C26.7348 23.9135 26.8951 23.1867 26.9426 22.1225C26.9881 21.0558 27 20.7158 27 18C27 15.2842 26.9881 14.9433 26.9426 13.8767C26.8951 12.8121 26.7348 12.0854 26.5012 11.4496C26.2578 10.7919 25.9332 10.234 25.4048 9.67813C24.8763 9.12188 24.3479 8.78021 23.7225 8.525C23.1168 8.27771 22.4261 8.10917 21.4147 8.06042C20.4014 8.01188 20.0788 8 17.4979 8H17.5009ZM16.6487 9.80208C16.9016 9.80167 17.1838 9.80208 17.5009 9.80208C20.0374 9.80208 20.3381 9.81167 21.3397 9.85958C22.266 9.90417 22.7687 10.0671 23.1036 10.204C23.5469 10.3852 23.863 10.6019 24.1953 10.9519C24.5278 11.3019 24.7336 11.6352 24.9062 12.1019C25.0363 12.454 25.1912 12.9831 25.2334 13.9581C25.2789 15.0123 25.2888 15.329 25.2888 17.9977C25.2888 20.6665 25.2789 20.9831 25.2334 22.0373C25.191 23.0123 25.0363 23.5415 24.9062 23.8935C24.734 24.3602 24.5278 24.6925 24.1953 25.0423C23.8628 25.3923 23.5471 25.609 23.1036 25.7902C22.7691 25.9277 22.266 26.0902 21.3397 26.1348C20.3383 26.1827 20.0374 26.1931 17.5009 26.1931C14.9642 26.1931 14.6635 26.1827 13.6621 26.1348C12.7358 26.0898 12.2331 25.9269 11.898 25.79C11.4547 25.6087 11.138 25.3921 10.8055 25.0421C10.473 24.6921 10.2672 24.3596 10.0946 23.8927C9.96454 23.5406 9.80957 23.0115 9.76741 22.0365C9.72189 20.9823 9.71279 20.6656 9.71279 17.9952C9.71279 15.3248 9.72189 15.0098 9.76741 13.9556C9.80977 12.9806 9.96454 12.4515 10.0946 12.099C10.2668 11.6323 10.473 11.299 10.8055 10.949C11.138 10.599 11.4547 10.3823 11.898 10.2006C12.2329 10.0631 12.7358 9.90063 13.6621 9.85583C14.5384 9.81417 14.8781 9.80167 16.6487 9.79958V9.80208ZM22.572 11.4625C21.9426 11.4625 21.432 11.9994 21.432 12.6621C21.432 13.3246 21.9426 13.8621 22.572 13.8621C23.2013 13.8621 23.712 13.3246 23.712 12.6621C23.712 11.9996 23.2013 11.4625 22.572 11.4625ZM17.5009 12.8646C14.8066 12.8646 12.6222 15.164 12.6222 18C12.6222 20.836 14.8066 23.1344 17.5009 23.1344C20.1952 23.1344 22.3788 20.836 22.3788 18C22.3788 15.164 20.1952 12.8646 17.5009 12.8646ZM17.5009 14.6667C19.2497 14.6667 20.6676 16.159 20.6676 18C20.6676 19.8408 19.2497 21.3333 17.5009 21.3333C15.7519 21.3333 14.3342 19.8408 14.3342 18C14.3342 16.159 15.7519 14.6667 17.5009 14.6667Z" fill="white"/>
<defs>
<radialGradient id="paint0_radial_573_7463" cx="0" cy="0" r="1" gradientUnits="userSpaceOnUse" gradientTransform="translate(9.29692 37.6957) rotate(-90) scale(34.6876 32.2622)">
<stop stop-color="#FFDD55"/>
<stop offset="0.1" stop-color="#FFDD55"/>
<stop offset="0.5" stop-color="#FF543E"/>
<stop offset="1" stop-color="#C837AB"/>
</radialGradient>
<radialGradient id="paint1_radial_573_7463" cx="0" cy="0" r="1" gradientUnits="userSpaceOnUse" gradientTransform="translate(-5.86269 2.52134) rotate(78.6806) scale(15.5055 63.9143)">
<stop stop-color="#3771C8"/>
<stop offset="0.128" stop-color="#3771C8"/>
<stop offset="1" stop-color="#6600FF" stop-opacity="0"/>
</radialGradient>
</defs>
</svg>
